  0
SECTION
  2
HEADER
  9
$ACADVER
  1
AC1015
  9
$ACADMAINTVER
 70
     6
  9
$DWGCODEPAGE
  3
ANSI_936
  9
$INSBASE
 10
0.0
 20
0.0
 30
0.0
  9
$EXTMIN
 10
-27.0
 20
-27.0
 30
0.0
  9
$EXTMAX
 10
27.0
 20
27.0
 30
0.0
  9
$LIMMIN
 10
0.0
 20
0.0
  9
$LIMMAX
 10
420.0
 20
297.0
  9
$ORTHOMODE
 70
     0
  9
$REGENMODE
 70
     1
  9
$FILLMODE
 70
     1
  9
$QTEXTMODE
 70
     0
  9
$MIRRTEXT
 70
     1
  9
$LTSCALE
 40
1.0
  9
$ATTMODE
 70
     1
  9
$TEXTSIZE
 40
3.175
  9
$TRACEWID
 40
1.0
  9
$TEXTSTYLE
  7
Standard
  9
$CLAYER
  8
0
  9
$CELTYPE
  6
ByLayer
  9
$CECOLOR
 62
   256
  9
$CELTSCALE
 40
1.0
  9
$DISPSILH
 70
     0
  9
$DIMSCALE
 40
1.0
  9
$DIMASZ
 40
3.302
  9
$DIMEXO
 40
0.0
  9
$DIMDLI
 40
3.75
  9
$DIMRND
 40
0.0
  9
$DIMDLE
 40
0.0
  9
$DIMEXE
 40
3.175
  9
$DIMTP
 40
0.0
  9
$DIMTM
 40
0.0
  9
$DIMTXT
 40
3.175
  9
$DIMCEN
 40
2.5
  9
$DIMTSZ
 40
0.0
  9
$DIMTOL
 70
     0
  9
$DIMLIM
 70
     0
  9
$DIMTIH
 70
     1
  9
$DIMTOH
 70
     1
  9
$DIMSE1
 70
     0
  9
$DIMSE2
 70
     0
  9
$DIMTAD
 70
     0
  9
$DIMZIN
 70
     0
  9
$DIMBLK
  1

  9
$DIMASO
 70
     1
  9
$DIMSHO
 70
     1
  9
$DIMPOST
  1

  9
$DIMAPOST
  1

  9
$DIMALT
 70
     0
  9
$DIMALTD
 70
     3
  9
$DIMALTF
 40
0.0393700787
  9
$DIMLFAC
 40
1.0
  9
$DIMTOFL
 70
     1
  9
$DIMTVP
 40
0.0
  9
$DIMTIX
 70
     0
  9
$DIMSOXD
 70
     0
  9
$DIMSAH
 70
     0
  9
$DIMBLK1
  1

  9
$DIMBLK2
  1

  9
$DIMSTYLE
  2
ISO-25
  9
$DIMCLRD
 70
     0
  9
$DIMCLRE
 70
     0
  9
$DIMCLRT
 70
     0
  9
$DIMTFAC
 40
1.0
  9
$DIMGAP
 40
1.524
  9
$DIMJUST
 70
     0
  9
$DIMSD1
 70
     0
  9
$DIMSD2
 70
     0
  9
$DIMTOLJ
 70
     0
  9
$DIMTZIN
 70
     0
  9
$DIMALTZ
 70
     0
  9
$DIMALTTZ
 70
     0
  9
$DIMUPT
 70
     0
  9
$DIMDEC
 70
     2
  9
$DIMTDEC
 70
     2
  9
$DIMALTU
 70
     2
  9
$DIMALTTD
 70
     3
  9
$DIMTXSTY
  7
Standard
  9
$DIMAUNIT
 70
     0
  9
$DIMADEC
 70
     2
  9
$DIMALTRND
 40
0.0
  9
$DIMAZIN
 70
     0
  9
$DIMDSEP
 70
    44
  9
$DIMATFIT
 70
     3
  9
$DIMFRAC
 70
     0
  9
$DIMLDRBLK
  1

  9
$DIMLUNIT
 70
     2
  9
$DIMLWD
 70
    -2
  9
$DIMLWE
 70
    -2
  9
$DIMTMOVE
 70
     0
  9
$LUNITS
 70
     2
  9
$LUPREC
 70
     2
  9
$SKETCHINC
 40
1.0
  9
$FILLETRAD
 40
10.0
  9
$AUNITS
 70
     0
  9
$AUPREC
 70
     2
  9
$MENU
  1
.
  9
$ELEVATION
 40
0.0
  9
$PELEVATION
 40
0.0
  9
$THICKNESS
 40
0.0
  9
$LIMCHECK
 70
     0
  9
$CHAMFERA
 40
0.0
  9
$CHAMFERB
 40
0.0
  9
$CHAMFERC
 40
0.0
  9
$CHAMFERD
 40
0.0
  9
$SKPOLY
 70
     0
  9
$TDCREATE
 40
2460412.985052442
  9
$TDUCREATE
 40
2460412.651719109
  9
$TDUPDATE
 40
2460412.98509419
  9
$TDUUPDATE
 40
2460412.651760857
  9
$TDINDWG
 40
0.0000000116
  9
$TDUSRTIMER
 40
0.0000000116
  9
$USRTIMER
 70
     1
  9
$ANGBASE
 50
0.0
  9
$ANGDIR
 70
     0
  9
$PDMODE
 70
     0
  9
$PDSIZE
 40
-1.0
  9
$PLINEWID
 40
0.0
  9
$SPLFRAME
 70
     0
  9
$SPLINETYPE
 70
     6
  9
$SPLINESEGS
 70
     8
  9
$HANDSEED
  5
F7
  9
$SURFTAB1
 70
     6
  9
$SURFTAB2
 70
     6
  9
$SURFTYPE
 70
     6
  9
$SURFU
 70
     6
  9
$SURFV
 70
     6
  9
$UCSBASE
  2

  9
$UCSNAME
  2

  9
$UCSORG
 10
0.0
 20
0.0
 30
0.0
  9
$UCSXDIR
 10
1.0
 20
0.0
 30
0.0
  9
$UCSYDIR
 10
0.0
 20
1.0
 30
0.0
  9
$UCSORTHOREF
  2

  9
$UCSORTHOVIEW
 70
     0
  9
$UCSORGTOP
 10
0.0
 20
0.0
 30
0.0
  9
$UCSORGBOTTOM
 10
0.0
 20
0.0
 30
0.0
  9
$UCSORGLEFT
 10
0.0
 20
0.0
 30
0.0
  9
$UCSORGRIGHT
 10
0.0
 20
0.0
 30
0.0
  9
$UCSORGFRONT
 10
0.0
 20
0.0
 30
0.0
  9
$UCSORGBACK
 10
0.0
 20
0.0
 30
0.0
  9
$PUCSBASE
  2

  9
$PUCSNAME
  2

  9
$PUCSORG
 10
0.0
 20
0.0
 30
0.0
  9
$PUCSXDIR
 10
1.0
 20
0.0
 30
0.0
  9
$PUCSYDIR
 10
0.0
 20
1.0
 30
0.0
  9
$PUCSORTHOREF
  2

  9
$PUCSORTHOVIEW
 70
     0
  9
$PUCSORGTOP
 10
0.0
 20
0.0
 30
0.0
  9
$PUCSORGBOTTOM
 10
0.0
 20
0.0
 30
0.0
  9
$PUCSORGLEFT
 10
0.0
 20
0.0
 30
0.0
  9
$PUCSORGRIGHT
 10
0.0
 20
0.0
 30
0.0
  9
$PUCSORGFRONT
 10
0.0
 20
0.0
 30
0.0
  9
$PUCSORGBACK
 10
0.0
 20
0.0
 30
0.0
  9
$USERI1
 70
     0
  9
$USERI2
 70
     0
  9
$USERI3
 70
     0
  9
$USERI4
 70
     0
  9
$USERI5
 70
     0
  9
$USERR1
 40
0.0
  9
$USERR2
 40
0.0
  9
$USERR3
 40
0.0
  9
$USERR4
 40
0.0
  9
$USERR5
 40
0.0
  9
$WORLDVIEW
 70
     1
  9
$SHADEDGE
 70
     3
  9
$SHADEDIF
 70
    70
  9
$TILEMODE
 70
     1
  9
$MAXACTVP
 70
    64
  9
$PINSBASE
 10
0.0
 20
0.0
 30
0.0
  9
$PLIMCHECK
 70
     0
  9
$PEXTMIN
 10
-27.0
 20
-27.0
 30
0.0
  9
$PEXTMAX
 10
27.0
 20
27.0
 30
0.0
  9
$PLIMMIN
 10
-32.5384615385
 20
-29.0769230769
  9
$PLIMMAX
 10
49.7076923077
 20
29.0769230769
  9
$UNITMODE
 70
     0
  9
$VISRETAIN
 70
     1
  9
$PLINEGEN
 70
     0
  9
$PSLTSCALE
 70
     1
  9
$TREEDEPTH
 70
  3020
  9
$CMLSTYLE
  2
Standard
  9
$CMLJUST
 70
     0
  9
$CMLSCALE
 40
20.0
  9
$PROXYGRAPHICS
 70
     1
  9
$MEASUREMENT
 70
     1
  9
$CELWEIGHT
370
    -1
  9
$ENDCAPS
280
     0
  9
$JOINSTYLE
280
     0
  9
$LWDISPLAY
290
     1
  9
$INSUNITS
 70
     4
  9
$HYPERLINKBASE
  1

  9
$STYLESHEET
  1

  9
$XEDIT
290
     1
  9
$CEPSNTYPE
380
     0
  9
$PSTYLEMODE
290
     1
  9
$FINGERPRINTGUID
  2
{0eac70b5-5e72-43d7-8c24-66272e4b34e1}
  9
$VERSIONGUID
  2
{FAEB1C32-E019-11D5-929B-00C0DF256EC4}
  9
$EXTNAMES
290
     1
  9
$PSVPSCALE
 40
0.0
  9
$OLESTARTUP
290
     0
  0
ENDSEC
  0
SECTION
  2
CLASSES
  0
CLASS
  1
ACDBDICTIONARYWDFLT
  2
AcDbDictionaryWithDefault
  3
ObjectDBX Classes
 90
        0
280
     0
281
     0
  0
CLASS
  1
VISUALSTYLE
  2
AcDbVisualStyle
  3
ObjectDBX Classes
 90
     4095
280
     0
281
     0
  0
CLASS
  1
MATERIAL
  2
AcDbMaterial
  3
ObjectDBX Classes
 90
     1153
280
     0
281
     0
  0
CLASS
  1
SCALE
  2
AcDbScale
  3
ObjectDBX Classes
 90
     1153
280
     0
281
     0
  0
CLASS
  1
TABLESTYLE
  2
AcDbTableStyle
  3
ObjectDBX Classes
 90
     4095
280
     0
281
     0
  0
CLASS
  1
MLEADERSTYLE
  2
AcDbMLeaderStyle
  3
ACDB_MLEADERSTYLE_CLASS
 90
     4095
280
     0
281
     0
  0
CLASS
  1
SUN
  2
AcDbSun
  3
SCENEOE
 90
     1153
280
     0
281
     0
  0
CLASS
  1
ACDBPLACEHOLDER
  2
AcDbPlaceHolder
  3
ObjectDBX Classes
 90
        0
280
     0
281
     0
  0
CLASS
  1
LAYOUT
  2
AcDbLayout
  3
ObjectDBX Classes
 90
        0
280
     0
281
     0
  0
ENDSEC
  0
SECTION
  2
TABLES
  0
TABLE
  2
VPORT
  5
8
330
0
100
AcDbSymbolTable
 70
     1
  0
VPORT
  5
29
330
8
100
AcDbSymbolTableRecord
100
AcDbViewportTableRecord
  2
*Active
 70
     0
 10
0.0
 20
0.0
 11
1.0
 21
1.0
 12
0.0
 22
0.0
 13
0.0
 23
0.0
 14
10.0
 24
10.0
 15
10.0
 25
10.0
 16
0.0
 26
0.0
 36
1.0
 17
0.0
 27
0.0
 37
0.0
 40
55.08
 41
1.0
 42
50.0
 43
0.0
 44
0.0
 50
0.0
 51
0.0
 71
     0
 72
   100
 73
     1
 74
     3
 75
     0
 76
     0
 77
     0
 78
     0
281
     0
 65
     1
110
0.0
120
0.0
130
0.0
111
1.0
121
0.0
131
0.0
112
0.0
122
1.0
132
0.0
 79
     0
146
0.0
  0
ENDTAB
  0
TABLE
  2
LTYPE
  5
5
330
0
100
AcDbSymbolTable
 70
     6
  0
LTYPE
  5
14
330
5
100
AcDbSymbolTableRecord
100
AcDbLinetypeTableRecord
  2
ByBlock
 70
     0
  3

 72
    65
 73
     0
 40
0.0
  0
LTYPE
  5
15
330
5
100
AcDbSymbolTableRecord
100
AcDbLinetypeTableRecord
  2
ByLayer
 70
     0
  3

 72
    65
 73
     0
 40
0.0
  0
LTYPE
  5
16
330
5
100
AcDbSymbolTableRecord
100
AcDbLinetypeTableRecord
  2
Continuous
 70
     0
  3
Solid line
 72
    65
 73
     0
 40
0.0
  0
LTYPE
  5
6E
330
5
100
AcDbSymbolTableRecord
100
AcDbLinetypeTableRecord
  2
HIDDEN
 70
     0
  3
Hidden __ __ __ __ __ __ __ __ __ __ __ __ __ __
 72
    65
 73
     2
 40
1.905
 49
1.27
 74
     0
 49
-0.635
 74
     0
  0
LTYPE
  5
6F
330
5
100
AcDbSymbolTableRecord
100
AcDbLinetypeTableRecord
  2
PHANTOM
 70
     0
  3
Phantom ______  __  __  ______  __  __  ______
 72
    65
 73
     6
 40
12.7
 49
6.35
 74
     0
 49
-1.27
 74
     0
 49
1.27
 74
     0
 49
-1.27
 74
     0
 49
1.27
 74
     0
 49
-1.27
 74
     0
  0
LTYPE
  5
70
330
5
100
AcDbSymbolTableRecord
100
AcDbLinetypeTableRecord
  2
CENTER
 70
     0
  3
Center ____ _ ____ _ ____ _ ____ _ ____ _ ____
 72
    65
 73
     4
 40
10.16
 49
6.35
 74
     0
 49
-1.27
 74
     0
 49
1.27
 74
     0
 49
-1.27
 74
     0
  0
LTYPE
  5
71
330
5
100
AcDbSymbolTableRecord
100
AcDbLinetypeTableRecord
  2
CENTERX2
 70
     0
  3
Center (2x) ________  __  ________  __  _____
 72
    65
 73
     4
 40
20.32
 49
12.7
 74
     0
 49
-2.54
 74
     0
 49
2.54
 74
     0
 49
-2.54
 74
     0
  0
LTYPE
  5
72
330
5
100
AcDbSymbolTableRecord
100
AcDbLinetypeTableRecord
  2
DOT2
 70
     0
  3
Dot (.5x) ........................................
 72
    65
 73
     2
 40
0.635
 49
0.0
 74
     0
 49
-0.635
 74
     0
  0
ENDTAB
  0
TABLE
  2
LAYER
  5
2
330
0
100
AcDbSymbolTable
 70
     1
  0
LAYER
  5
10
330
2
100
AcDbSymbolTableRecord
100
AcDbLayerTableRecord
  2
0
 70
     0
 62
     7
  6
Continuous
370
    -3
390
F
  0
ENDTAB
  0
TABLE
  2
STYLE
  5
3
330
0
100
AcDbSymbolTable
 70
     1
  0
STYLE
  5
11
330
3
100
AcDbSymbolTableRecord
100
AcDbTextStyleTableRecord
  2
Standard
 70
     0
 40
0.0
 41
1.0
 50
0.0
 71
     0
 42
3.175
  3
txt
  4

  0
ENDTAB
  0
TABLE
  2
VIEW
  5
6
330
0
100
AcDbSymbolTable
 70
     0
  0
ENDTAB
  0
TABLE
  2
UCS
  5
7
330
0
100
AcDbSymbolTable
 70
     0
  0
ENDTAB
  0
TABLE
  2
APPID
  5
9
330
0
100
AcDbSymbolTable
 70
     1
  0
APPID
  5
12
330
9
100
AcDbSymbolTableRecord
100
AcDbRegAppTableRecord
  2
ACAD
 70
     0
  0
ENDTAB
  0
TABLE
  2
DIMSTYLE
  5
A
330
0
100
AcDbSymbolTable
 70
     1
100
AcDbDimStyleTable
  0
DIMSTYLE
105
27
330
A
100
AcDbSymbolTableRecord
100
AcDbDimStyleTableRecord
  2
ISO-25
 70
     0
 41
2.5
 42
0.625
 43
3.75
 44
1.25
 73
     0
 74
     0
 77
     1
 78
     8
140
2.5
141
2.5
143
0.0393700787
147
0.625
171
     3
172
     1
178
     0
271
     2
272
     2
274
     3
278
    44
283
     0
284
     8
340
11
  0
ENDTAB
  0
TABLE
  2
BLOCK_RECORD
  5
1
330
0
100
AcDbSymbolTable
 70
    10
  0
BLOCK_RECORD
  5
1F
330
1
100
AcDbSymbolTableRecord
100
AcDbBlockTableRecord
  2
*Model_Space
340
22
  0
BLOCK_RECORD
  5
1B
330
1
100
AcDbSymbolTableRecord
100
AcDbBlockTableRecord
  2
*Paper_Space
340
1E
  0
BLOCK_RECORD
  5
23
330
1
100
AcDbSymbolTableRecord
100
AcDbBlockTableRecord
  2
*Paper_Space0
340
26
  0
BLOCK_RECORD
  5
7F
330
1
100
AcDbSymbolTableRecord
100
AcDbBlockTableRecord
  2
*Paper_Space1
340
80
  0
BLOCK_RECORD
  5
85
330
1
100
AcDbSymbolTableRecord
100
AcDbBlockTableRecord
  2
*Paper_Space2
340
86
  0
BLOCK_RECORD
  5
8B
330
1
100
AcDbSymbolTableRecord
100
AcDbBlockTableRecord
  2
*Paper_Space3
340
8C
  0
BLOCK_RECORD
  5
91
330
1
100
AcDbSymbolTableRecord
100
AcDbBlockTableRecord
  2
*Paper_Space4
340
92
  0
BLOCK_RECORD
  5
9D
330
1
100
AcDbSymbolTableRecord
100
AcDbBlockTableRecord
  2
*Paper_Space5
340
9E
  0
BLOCK_RECORD
  5
AB
330
1
100
AcDbSymbolTableRecord
100
AcDbBlockTableRecord
  2
*Paper_Space6
340
AC
  0
BLOCK_RECORD
  5
B7
330
1
100
AcDbSymbolTableRecord
100
AcDbBlockTableRecord
  2
*Paper_Space7
340
B8
  0
BLOCK_RECORD
  5
C4
330
1
100
AcDbSymbolTableRecord
100
AcDbBlockTableRecord
  2
*Paper_Space8
340
C5
  0
BLOCK_RECORD
  5
D2
330
1
100
AcDbSymbolTableRecord
100
AcDbBlockTableRecord
  2
*Paper_Space9
340
D3
  0
ENDTAB
  0
ENDSEC
  0
SECTION
  2
BLOCKS
  0
BLOCK
  5
20
330
1F
100
AcDbEntity
  8
0
100
AcDbBlockBegin
  2
*Model_Space
 70
     0
 10
0.0
 20
0.0
 30
0.0
  3
*Model_Space
  1

  0
ENDBLK
  5
21
330
1F
100
AcDbEntity
  8
0
100
AcDbBlockEnd
  0
BLOCK
  5
1C
330
1B
100
AcDbEntity
 67
     1
  8
0
100
AcDbBlockBegin
  2
*Paper_Space
 70
     0
 10
0.0
 20
0.0
 30
0.0
  3
*Paper_Space
  1

  0
ENDBLK
  5
1D
330
1B
100
AcDbEntity
 67
     1
  8
0
100
AcDbBlockEnd
  0
BLOCK
  5
24
330
23
100
AcDbEntity
  8
0
100
AcDbBlockBegin
  2
*Paper_Space0
 70
     0
 10
0.0
 20
0.0
 30
0.0
  3
*Paper_Space0
  1

  0
LINE
  5
7B
330
23
100
AcDbEntity
  8
0
  6
Continuous
 62
     7
370
    25
100
AcDbLine
 10
-27.0
 20
0.0
 30
0.0
 11
-27.0
 21
-2.0
 31
0.0
  0
LINE
  5
7C
330
23
100
AcDbEntity
  8
0
  6
Continuous
 62
     7
370
    25
100
AcDbLine
 10
27.0
 20
-2.0
 30
0.0
 11
27.0
 21
0.0
 31
0.0
  0
LINE
  5
7D
330
23
100
AcDbEntity
  8
0
  6
Continuous
 62
     7
370
    25
100
AcDbLine
 10
27.0
 20
0.0
 30
0.0
 11
-27.0
 21
0.0
 31
0.0
  0
LINE
  5
7E
330
23
100
AcDbEntity
  8
0
  6
Continuous
 62
     7
370
    25
100
AcDbLine
 10
27.0
 20
-2.0
 30
0.0
 11
-27.0
 21
-2.0
 31
0.0
  0
VIEWPORT
  5
E2
330
23
100
AcDbEntity
  8
0
100
AcDbViewport
 10
0.0
 20
0.0
 30
0.0
 40
205.6
 41
156.0
 68
     1
 69
     1
 12
0.0
 22
0.0
 13
0.0
 23
0.0
 14
10.0
 24
10.0
 15
10.0
 25
10.0
 16
0.0
 26
0.0
 36
1.0
 17
0.0
 27
0.0
 37
0.0
 42
50.0
 43
0.0
 44
0.0
 45
55.08
 50
0.0
 51
0.0
 72
   100
 90
   557152
  1

281
     0
 71
     1
 74
     0
110
0.0
120
0.0
130
0.0
111
1.0
121
0.0
131
0.0
112
0.0
122
1.0
132
0.0
 79
     0
146
0.0
  0
ENDBLK
  5
25
330
23
100
AcDbEntity
  8
0
100
AcDbBlockEnd
  0
BLOCK
  5
81
330
7F
100
AcDbEntity
  8
0
100
AcDbBlockBegin
  2
*Paper_Space1
 70
     0
 10
0.0
 20
0.0
 30
0.0
  3
*Paper_Space1
  1

  0
CIRCLE
  5
83
330
7F
100
AcDbEntity
  8
0
  6
Continuous
 62
     7
370
    25
100
AcDbCircle
 10
0.0
 20
0.0
 30
0.0
 40
10.00000000000001
  0
CIRCLE
  5
84
330
7F
100
AcDbEntity
  8
0
  6
Continuous
 62
     7
370
    25
100
AcDbCircle
 10
0.0
 20
0.0
 30
0.0
 40
27.0
  0
VIEWPORT
  5
E4
330
7F
100
AcDbEntity
  8
0
100
AcDbViewport
 10
0.0
 20
0.0
 30
0.0
 40
205.6
 41
156.0
 68
     1
 69
     1
 12
0.0
 22
0.0
 13
0.0
 23
0.0
 14
10.0
 24
10.0
 15
10.0
 25
10.0
 16
0.0
 26
0.0
 36
1.0
 17
0.0
 27
0.0
 37
0.0
 42
50.0
 43
0.0
 44
0.0
 45
55.08
 50
0.0
 51
0.0
 72
   100
 90
   557152
  1

281
     0
 71
     1
 74
     0
110
0.0
120
0.0
130
0.0
111
1.0
121
0.0
131
0.0
112
0.0
122
1.0
132
0.0
 79
     0
146
0.0
  0
ENDBLK
  5
82
330
7F
100
AcDbEntity
  8
0
100
AcDbBlockEnd
  0
BLOCK
  5
87
330
85
100
AcDbEntity
  8
0
100
AcDbBlockBegin
  2
*Paper_Space2
 70
     0
 10
0.0
 20
0.0
 30
0.0
  3
*Paper_Space2
  1

  0
CIRCLE
  5
89
330
85
100
AcDbEntity
  8
0
  6
Continuous
 62
     7
370
    25
100
AcDbCircle
 10
0.0
 20
0.0
 30
0.0
 40
10.00000000000001
  0
CIRCLE
  5
8A
330
85
100
AcDbEntity
  8
0
  6
Continuous
 62
     7
370
    25
100
AcDbCircle
 10
0.0
 20
0.0
 30
0.0
 40
27.0
  0
VIEWPORT
  5
E6
330
85
100
AcDbEntity
  8
0
100
AcDbViewport
 10
0.0
 20
0.0
 30
0.0
 40
205.6
 41
156.0
 68
     1
 69
     1
 12
0.0
 22
0.0
 13
0.0
 23
0.0
 14
10.0
 24
10.0
 15
10.0
 25
10.0
 16
0.0
 26
0.0
 36
1.0
 17
0.0
 27
0.0
 37
0.0
 42
50.0
 43
0.0
 44
0.0
 45
55.08
 50
0.0
 51
0.0
 72
   100
 90
   557152
  1

281
     0
 71
     1
 74
     0
110
0.0
120
0.0
130
0.0
111
1.0
121
0.0
131
0.0
112
0.0
122
1.0
132
0.0
 79
     0
146
0.0
  0
ENDBLK
  5
88
330
85
100
AcDbEntity
  8
0
100
AcDbBlockEnd
  0
BLOCK
  5
8D
330
8B
100
AcDbEntity
  8
0
100
AcDbBlockBegin
  2
*Paper_Space3
 70
     0
 10
0.0
 20
0.0
 30
0.0
  3
*Paper_Space3
  1

  0
CIRCLE
  5
8F
330
8B
100
AcDbEntity
  8
0
  6
Continuous
 62
     7
370
    25
100
AcDbCircle
 10
0.0
 20
0.0
 30
0.0
 40
10.00000000000001
  0
CIRCLE
  5
90
330
8B
100
AcDbEntity
  8
0
  6
Continuous
 62
     7
370
    25
100
AcDbCircle
 10
0.0
 20
0.0
 30
0.0
 40
27.0
  0
VIEWPORT
  5
E8
330
8B
100
AcDbEntity
  8
0
100
AcDbViewport
 10
0.0
 20
0.0
 30
0.0
 40
205.6
 41
156.0
 68
     1
 69
     1
 12
0.0
 22
0.0
 13
0.0
 23
0.0
 14
10.0
 24
10.0
 15
10.0
 25
10.0
 16
0.0
 26
0.0
 36
1.0
 17
0.0
 27
0.0
 37
0.0
 42
50.0
 43
0.0
 44
0.0
 45
55.08
 50
0.0
 51
0.0
 72
   100
 90
   557152
  1

281
     0
 71
     1
 74
     0
110
0.0
120
0.0
130
0.0
111
1.0
121
0.0
131
0.0
112
0.0
122
1.0
132
0.0
 79
     0
146
0.0
  0
ENDBLK
  5
8E
330
8B
100
AcDbEntity
  8
0
100
AcDbBlockEnd
  0
BLOCK
  5
93
330
91
100
AcDbEntity
  8
0
100
AcDbBlockBegin
  2
*Paper_Space4
 70
     0
 10
0.0
 20
0.0
 30
0.0
  3
*Paper_Space4
  1

  0
LINE
  5
99
330
91
100
AcDbEntity
  8
0
  6
Continuous
 62
     7
370
    25
100
AcDbLine
 10
0.0
 20
-27.0
 30
0.0
 11
2.0
 21
-27.0
 31
0.0
  0
LINE
  5
9A
330
91
100
AcDbEntity
  8
0
  6
Continuous
 62
     7
370
    25
100
AcDbLine
 10
2.0
 20
27.0
 30
0.0
 11
0.0
 21
27.0
 31
0.0
  0
LINE
  5
9B
330
91
100
AcDbEntity
  8
0
  6
Continuous
 62
     7
370
    25
100
AcDbLine
 10
0.0
 20
27.0
 30
0.0
 11
0.0
 21
-27.0
 31
0.0
  0
LINE
  5
9C
330
91
100
AcDbEntity
  8
0
  6
Continuous
 62
     7
370
    25
100
AcDbLine
 10
2.0
 20
27.0
 30
0.0
 11
2.0
 21
-27.0
 31
0.0
  0
VIEWPORT
  5
EA
330
91
100
AcDbEntity
  8
0
100
AcDbViewport
 10
0.0
 20
0.0
 30
0.0
 40
205.6
 41
156.0
 68
     1
 69
     1
 12
0.0
 22
0.0
 13
0.0
 23
0.0
 14
10.0
 24
10.0
 15
10.0
 25
10.0
 16
0.0
 26
0.0
 36
1.0
 17
0.0
 27
0.0
 37
0.0
 42
50.0
 43
0.0
 44
0.0
 45
55.08
 50
0.0
 51
0.0
 72
   100
 90
   557152
  1

281
     0
 71
     1
 74
     0
110
0.0
120
0.0
130
0.0
111
1.0
121
0.0
131
0.0
112
0.0
122
1.0
132
0.0
 79
     0
146
0.0
  0
ENDBLK
  5
94
330
91
100
AcDbEntity
  8
0
100
AcDbBlockEnd
  0
BLOCK
  5
9F
330
9D
100
AcDbEntity
  8
0
100
AcDbBlockBegin
  2
*Paper_Space5
 70
     0
 10
0.0
 20
0.0
 30
0.0
  3
*Paper_Space5
  1

  0
LINE
  5
A7
330
9D
100
AcDbEntity
  8
0
  6
Continuous
 62
     7
370
    25
100
AcDbLine
 10
0.0
 20
27.0
 30
0.0
 11
-2.0
 21
27.0
 31
0.0
  0
LINE
  5
A8
330
9D
100
AcDbEntity
  8
0
  6
Continuous
 62
     7
370
    25
100
AcDbLine
 10
-2.0
 20
-27.0
 30
0.0
 11
0.0
 21
-27.0
 31
0.0
  0
LINE
  5
A9
330
9D
100
AcDbEntity
  8
0
  6
Continuous
 62
     7
370
    25
100
AcDbLine
 10
0.0
 20
-27.0
 30
0.0
 11
0.0
 21
27.0
 31
0.0
  0
LINE
  5
AA
330
9D
100
AcDbEntity
  8
0
  6
Continuous
 62
     7
370
    25
100
AcDbLine
 10
-2.0
 20
-27.0
 30
0.0
 11
-2.0
 21
27.0
 31
0.0
  0
VIEWPORT
  5
EC
330
9D
100
AcDbEntity
  8
0
100
AcDbViewport
 10
0.0
 20
0.0
 30
0.0
 40
205.6
 41
156.0
 68
     1
 69
     1
 12
0.0
 22
0.0
 13
0.0
 23
0.0
 14
10.0
 24
10.0
 15
10.0
 25
10.0
 16
0.0
 26
0.0
 36
1.0
 17
0.0
 27
0.0
 37
0.0
 42
50.0
 43
0.0
 44
0.0
 45
55.08
 50
0.0
 51
0.0
 72
   100
 90
   557152
  1

281
     0
 71
     1
 74
     0
110
0.0
120
0.0
130
0.0
111
1.0
121
0.0
131
0.0
112
0.0
122
1.0
132
0.0
 79
     0
146
0.0
  0
ENDBLK
  5
A0
330
9D
100
AcDbEntity
  8
0
100
AcDbBlockEnd
  0
BLOCK
  5
AD
330
AB
100
AcDbEntity
  8
0
100
AcDbBlockBegin
  2
*Paper_Space6
 70
     0
 10
0.0
 20
0.0
 30
0.0
  3
*Paper_Space6
  1

  0
LINE
  5
B3
330
AB
100
AcDbEntity
  8
0
  6
Continuous
 62
     7
370
    25
100
AcDbLine
 10
27.0
 20
0.0
 30
0.0
 11
27.0
 21
2.0
 31
0.0
  0
LINE
  5
B4
330
AB
100
AcDbEntity
  8
0
  6
Continuous
 62
     7
370
    25
100
AcDbLine
 10
-27.0
 20
2.0
 30
0.0
 11
-27.0
 21
0.0
 31
0.0
  0
LINE
  5
B5
330
AB
100
AcDbEntity
  8
0
  6
Continuous
 62
     7
370
    25
100
AcDbLine
 10
-27.0
 20
0.0
 30
0.0
 11
27.0
 21
0.0
 31
0.0
  0
LINE
  5
B6
330
AB
100
AcDbEntity
  8
0
  6
Continuous
 62
     7
370
    25
100
AcDbLine
 10
-27.0
 20
2.0
 30
0.0
 11
27.0
 21
2.0
 31
0.0
  0
VIEWPORT
  5
EE
330
AB
100
AcDbEntity
  8
0
100
AcDbViewport
 10
0.0
 20
0.0
 30
0.0
 40
205.6
 41
156.0
 68
     1
 69
     1
 12
0.0
 22
0.0
 13
0.0
 23
0.0
 14
10.0
 24
10.0
 15
10.0
 25
10.0
 16
0.0
 26
0.0
 36
1.0
 17
0.0
 27
0.0
 37
0.0
 42
50.0
 43
0.0
 44
0.0
 45
55.08
 50
0.0
 51
0.0
 72
   100
 90
   557152
  1

281
     0
 71
     1
 74
     0
110
0.0
120
0.0
130
0.0
111
1.0
121
0.0
131
0.0
112
0.0
122
1.0
132
0.0
 79
     0
146
0.0
  0
ENDBLK
  5
AE
330
AB
100
AcDbEntity
  8
0
100
AcDbBlockEnd
  0
BLOCK
  5
B9
330
B7
100
AcDbEntity
  8
0
100
AcDbBlockBegin
  2
*Paper_Space7
 70
     0
 10
0.0
 20
0.0
 30
0.0
  3
*Paper_Space7
  1

  0
LWPOLYLINE
  5
BD
330
B7
100
AcDbEntity
  8
0
  6
Continuous
 62
     7
370
    25
100
AcDbPolyline
 90
       87
 70
   128
 43
0.0
 10
5.6568542495
 20
-4.8984486709
 10
5.6379906464
 20
-4.2915224097
 10
5.5815004825
 20
-3.6660549101
 10
5.4876851574
 20
-3.0253833118
 10
5.3570452163
 20
-2.3729258751
 10
5.1902776798
 20
-1.7121637426
 10
4.9882723251
 20
-1.0466223663
 10
4.7521069379
 20
-0.3798526974
 10
4.4830415629
 20
0.2845877595
 10
4.1825117802
 20
0.9431539271
 10
3.8521210462
 20
1.5923320699
 10
3.4936321385
 20
2.2286585417
 10
3.1089577505
 20
2.8487382653
 10
2.7001502865
 20
3.4492628472
 10
2.2693909112
 20
4.0270282289
 10
1.8189779122
 20
4.578951782
 10
1.3513144378
 20
5.1020887558
 10
0.8688956749
 20
5.5936479879
 10
0.3742955364
 20
6.0510067973
 10
-0.129847072
 20
6.4717249768
 10
-0.6408423313
 20
6.853557813
 10
-1.1559638607
 20
7.1944680623
 10
-1.672463264
 20
7.4926368211
 10
-2.1875847935
 20
7.7464732302
 10
-2.6985800528
 20
7.9546229623
 10
-3.2027226611
 20
8.1159754487
 10
-3.6973227996
 20
8.2296698039
 10
-4.1797415625
 20
8.2950994196
 10
-4.6474050369
 20
8.3119152002
 10
-5.0978180359
 20
8.2800274264
 10
-5.5285774112
 20
8.1996062332
 10
-5.9373848752
 20
8.0710807024
 10
-6.3220592632
 20
7.8951365735
 10
-6.6805481709
 20
7.6727125845
 10
-7.0109389049
 20
7.4049954635
 10
-7.3114686876
 20
7.0934135972
 10
-7.5805340627
 20
6.7396294098
 10
-7.8166994498
 20
6.3455304929
 10
-8.0187048046
 20
5.9132195348
 10
-8.185472341
 20
5.4450031014
 10
-8.3161122821
 20
4.9433793301
 10
-8.4099276073
 20
4.4110246007
 10
-8.4664177711
 20
3.850779256
 10
-8.4852813742
 20
3.2656324473
 10
-8.4664177711
 20
2.658706186
 10
-8.4099276073
 20
2.0332386864
 10
-8.3161122821
 20
1.3925670882
 10
-8.185472341
 20
0.7401096514
 10
-8.0187048046
 20
0.079347519
 10
-7.8166994498
 20
-0.5861938573
 10
-7.5805340627
 20
-1.2529635263
 10
-7.3114686876
 20
-1.9174039832
 10
-7.0109389049
 20
-2.5759701508
 10
-6.6805481709
 20
-3.2251482936
 10
-6.3220592632
 20
-3.8614747653
 10
-5.9373848752
 20
-4.4815544889
 10
-5.5285774112
 20
-5.0820790708
 10
-5.0978180359
 20
-5.6598444525
 10
-4.6474050369
 20
-6.2117680057
 10
-4.1797415625
 20
-6.7349049794
 10
-3.6973227996
 20
-7.2264642116
 10
-3.2027226611
 20
-7.683823021
 10
-2.6985800528
 20
-8.1045412005
 10
-2.1875847935
 20
-8.4863740366
 10
-1.672463264
 20
-8.8272842859
 10
-1.1559638607
 20
-9.1254530448
 10
-0.6408423313
 20
-9.3792894538
 10
-0.129847072
 20
-9.5874391859
 10
0.3742955364
 20
-9.7487916723
 10
0.8688956749
 20
-9.8624860276
 10
1.3513144378
 20
-9.9279156432
 10
1.8189779122
 20
-9.9447314238
 10
2.2693909112
 20
-9.91284365
 10
2.7001502865
 20
-9.8324224568
 10
3.1089577505
 20
-9.7038969261
 10
3.4936321385
 20
-9.5279527972
 10
3.8521210462
 20
-9.3055288081
 10
4.1825117802
 20
-9.0378116871
 10
4.4830415629
 20
-8.7262298209
 10
4.7521069379
 20
-8.3724456334
 10
4.9882723251
 20
-7.9783467166
 10
5.1902776798
 20
-7.5460357584
 10
5.3570452163
 20
-7.0778193251
 10
5.4876851574
 20
-6.5761955538
 10
5.5815004825
 20
-6.0438408243
 10
5.6379906464
 20
-5.4835954796
 10
5.6568542495
 20
-4.8984486709
  0
LWPOLYLINE
  5
BE
330
B7
100
AcDbEntity
  8
0
  6
Continuous
 62
     7
370
    25
100
AcDbPolyline
 90
      143
 70
   128
 43
0.0
 10
17.6776695297
 20
-11.8379176214
 10
17.6589829008
 20
-10.8519350733
 10
17.6029595942
 20
-9.8463075099
 10
17.5097092781
 20
-8.8230034944
 10
17.3794144944
 20
-7.7840261924
 10
17.2123303011
 20
-6.7314094509
 10
17.0087837736
 20
-5.6672138164
 10
16.7691733637
 20
-4.593522502
 10
16.4939681199
 20
-3.5124373088
 10
16.1837067695
 20
-2.4260745119
 10
15.8389966637
 20
-1.3365607173
 10
15.4605125887
 20
-0.2460286997
 10
15.0489954447
 20
0.8433867735
 10
14.6052507961
 20
1.9295531203
 10
14.1301472936
 20
3.010344119
 10
13.6246149749
 20
4.0836440705
 10
13.089643443
 20
5.1473519398
 10
12.52627993
 20
6.1993854687
 10
11.9356272463
 20
7.2376852521
 10
11.3188416223
 20
8.2602187697
 10
10.6771304448
 20
9.2649843638
 10
10.0117498937
 20
10.2500151588
 10
9.3240024825
 20
11.2133829105
 10
8.6152345091
 20
12.1532017814
 10
7.8868334201
 20
13.0676320319
 10
7.1402250949
 20
13.9548836217
 10
6.3768710544
 20
14.8132197144
 10
5.5982655998
 20
15.6409600766
 10
4.8059328879
 20
16.4364843678
 10
4.0014239473
 20
17.1982353117
 10
3.1863136419
 20
17.9247217452
 10
2.3621975885
 20
18.6145215368
 10
1.5306890329
 20
19.2662843713
 10
0.6934156922
 20
19.8787343921
 10
-0.1479834318
 20
20.4506726996
 10
-0.9918612607
 20
20.9809796977
 10
-1.8365658641
 20
21.4686172855
 10
-2.680443693
 20
21.9126308897
 10
-3.5218428169
 20
22.3121513326
 10
-4.3591161576
 20
22.6663965343
 10
-5.1906247132
 20
22.9746730432
 10
-6.0147407666
 20
23.2363773934
 10
-6.829851072
 20
23.4509972866
 10
-7.6343600126
 20
23.618112594
 10
-8.4266927245
 20
23.7373961797
 10
-9.2052981791
 20
23.8086145405
 10
-9.9686522197
 20
23.8316282631
 10
-10.7152605449
 20
23.8063922969
 10
-11.4436616338
 20
23.7329560427
 10
-12.1524296072
 20
23.6114632553
 10
-12.8401770184
 20
23.4421517626
 10
-13.5055575696
 20
23.2253529997
 10
-14.147268747
 20
22.9614913605
 10
-14.764054371
 20
22.6510833664
 10
-15.3547070547
 20
22.2947366557
 10
-15.9180705678
 20
21.8931487939
 10
-16.4530420996
 20
21.4471059079
 10
-16.9585744184
 20
20.9574811478
 10
-17.4336779208
 20
20.4252329769
 10
-17.8774225695
 20
19.8514032961
 10
-18.2889397134
 20
19.2371154039
 10
-18.6674237885
 20
18.5835717978
 10
-19.0121338943
 20
17.8920518199
 10
-19.3223952446
 20
17.1639091531
 10
-19.5976004884
 20
16.400569171
 10
-19.8372108984
 20
15.6035261473
 10
-20.0407574259
 20
14.7743403312
 10
-20.2078416191
 20
13.9146348929
 10
-20.3381364028
 20
13.0260927461
 10
-20.4313867189
 20
12.1104532539
 10
-20.4874100256
 20
11.1695088235
 10
-20.5060966544
 20
10.2051013978
 10
-20.4874100256
 20
9.2191188497
 10
-20.4313867189
 20
8.2134912863
 10
-20.3381364028
 20
7.1901872708
 10
-20.2078416191
 20
6.1512099688
 10
-20.0407574259
 20
5.0985932272
 10
-19.8372108984
 20
4.0343975928
 10
-19.5976004884
 20
2.9607062784
 10
-19.3223952446
 20
1.8796210852
 10
-19.0121338943
 20
0.7932582882
 10
-18.6674237885
 20
-0.2962555063
 10
-18.2889397134
 20
-1.386787524
 10
-17.8774225695
 20
-2.4762029972
 10
-17.4336779208
 20
-3.5623693439
 10
-16.9585744184
 20
-4.6431603426
 10
-16.4530420996
 20
-5.7164602942
 10
-15.9180705678
 20
-6.7801681634
 10
-15.3547070547
 20
-7.8322016923
 10
-14.764054371
 20
-8.8705014758
 10
-14.147268747
 20
-9.8930349933
 10
-13.5055575696
 20
-10.8978005875
 10
-12.8401770184
 20
-11.8828313824
 10
-12.1524296072
 20
-12.8461991342
 10
-11.4436616338
 20
-13.786018005
 10
-10.7152605449
 20
-14.7004482555
 10
-9.9686522197
 20
-15.5876998454
 10
-9.2052981791
 20
-16.4460359381
 10
-8.4266927245
 20
-17.2737763003
 10
-7.6343600126
 20
-18.0693005914
 10
-6.829851072
 20
-18.8310515354
 10
-6.0147407666
 20
-19.5575379688
 10
-5.1906247132
 20
-20.2473377605
 10
-4.3591161576
 20
-20.8991005949
 10
-3.5218428169
 20
-21.5115506157
 10
-2.680443693
 20
-22.0834889232
 10
-1.8365658641
 20
-22.6137959213
 10
-0.9918612607
 20
-23.1014335092
 10
-0.1479834318
 20
-23.5454471133
 10
0.6934156922
 20
-23.9449675562
 10
1.5306890329
 20
-24.299212758
 10
2.3621975885
 20
-24.6074892668
 10
3.1863136419
 20
-24.8691936171
 10
4.0014239473
 20
-25.0838135102
 10
4.8059328879
 20
-25.2509288177
 10
5.5982655998
 20
-25.3702124034
 10
6.3768710544
 20
-25.4414307642
 10
7.1402250949
 20
-25.4644444867
 10
7.8868334201
 20
-25.4392085206
 10
8.6152345091
 20
-25.3657722664
 10
9.3240024825
 20
-25.244279479
 10
10.0117498937
 20
-25.0749679862
 10
10.6771304448
 20
-24.8581692234
 10
11.3188416223
 20
-24.5943075841
 10
11.9356272463
 20
-24.2838995901
 10
12.52627993
 20
-23.9275528794
 10
13.089643443
 20
-23.5259650175
 10
13.6246149749
 20
-23.0799221316
 10
14.1301472936
 20
-22.5902973714
 10
14.6052507961
 20
-22.0580492006
 10
15.0489954447
 20
-21.4842195198
 10
15.4605125887
 20
-20.8699316276
 10
15.8389966637
 20
-20.2163880214
 10
16.1837067695
 20
-19.5248680435
 10
16.4939681199
 20
-18.7967253768
 10
16.7691733637
 20
-18.0333853946
 10
17.0087837736
 20
-17.2363423709
 10
17.2123303011
 20
-16.4071565548
 10
17.3794144944
 20
-15.5474511165
 10
17.5097092781
 20
-14.6589089697
 10
17.6029595942
 20
-13.7432694775
 10
17.6589829008
 20
-12.8023250471
 10
17.6776695297
 20
-11.8379176214
  0
LWPOLYLINE
  5
BF
330
B7
100
AcDbEntity
  8
0
  6
Continuous
 62
     7
370
    25
100
AcDbPolyline
 90
       55
 70
   128
 43
0.0
 10
19.091883092
 20
-11.0215095096
 10
19.0731964632
 20
-10.0355269615
 10
19.0171731566
 20
-9.0298993981
 10
18.9239228405
 20
-8.0065953826
 10
18.7936280567
 20
-6.9676180806
 10
18.6265438635
 20
-5.9150013391
 10
18.422997336
 20
-4.8508057046
 10
18.183386926
 20
-3.7771143902
 10
17.9081816823
 20
-2.696029197
 10
17.5979203319
 20
-1.6096664
 10
17.2532102261
 20
-0.5201526055
 10
16.874726151
 20
0.5703794122
 10
16.4632090071
 20
1.6597948854
 10
16.0194643584
 20
2.7459612321
 10
15.544360856
 20
3.8267522308
 10
15.0388285372
 20
4.9000521823
 10
14.5038570054
 20
5.9637600516
 10
13.9404934924
 20
7.0157935805
 10
13.3498408087
 20
8.054093364
 10
12.7330551847
 20
9.0766268815
 10
12.0913440072
 20
10.0813924756
 10
11.425963456
 20
11.0664232706
 10
10.7382160448
 20
12.0297910223
 10
10.0294480715
 20
12.9696098932
 10
9.3010469825
 20
13.8840401437
 10
8.5544386573
 20
14.7712917336
 10
7.7910846167
 20
15.6296278262
 10
7.0124791621
 20
16.4573681885
 10
6.2201464503
 20
17.2528924796
 10
5.4156375096
 20
18.0146434235
 10
4.6005272043
 20
18.741129857
 10
3.7764111508
 20
19.4309296487
 10
2.9449025952
 20
20.0826924831
 10
2.1076292545
 20
20.6951425039
 10
1.2662301306
 20
21.2670808114
 10
0.4223523017
 20
21.7973878095
 10
-0.4223523017
 20
22.2850253973
 10
-1.2662301306
 20
22.7290390015
 10
-2.1076292545
 20
23.1285594444
 10
-2.9449025952
 20
23.4828046461
 10
-3.7764111508
 20
23.791081155
 10
-4.6005272043
 20
24.0527855053
 10
-5.4156375096
 20
24.2674053984
 10
-6.2201464503
 20
24.4345207058
 10
-7.0124791621
 20
24.5538042916
 10
-7.7910846167
 20
24.6250226523
 10
-8.5544386573
 20
24.6480363749
 10
-9.3010469825
 20
24.6228004088
 10
-10.0294480715
 20
24.5493641545
 10
-10.7382160448
 20
24.4278713671
 10
-11.425963456
 20
24.2585598744
 10
-12.0913440072
 20
24.0417611115
 10
-12.7330551847
 20
23.7778994723
 10
-13.3498408087
 20
23.4674914782
 10
-13.4989028906
 20
23.3833192843
  0
LWPOLYLINE
  5
C0
330
B7
100
AcDbEntity
  8
0
  6
Continuous
 62
     7
370
    25
100
AcDbPolyline
 90
       19
 70
   128
 43
0.0
 10
13.4989028906
 20
-23.3833192843
 10
13.9404934924
 20
-23.1111447676
 10
14.5038570054
 20
-22.7095569057
 10
15.0388285372
 20
-22.2635140198
 10
15.544360856
 20
-21.7738892596
 10
16.0194643584
 20
-21.2416410888
 10
16.4632090071
 20
-20.667811408
 10
16.874726151
 20
-20.0535235158
 10
17.2532102261
 20
-19.3999799096
 10
17.5979203319
 20
-18.7084599317
 10
17.9081816823
 20
-17.9803172649
 10
18.183386926
 20
-17.2169772828
 10
18.422997336
 20
-16.4199342591
 10
18.6265438635
 20
-15.590748443
 10
18.7936280567
 20
-14.7310430047
 10
18.9239228405
 20
-13.8425008579
 10
19.0171731566
 20
-12.9268613657
 10
19.0731964632
 20
-11.9859169353
 10
19.091883092
 20
-11.0215095096
  0
LWPOLYLINE
  5
C1
330
B7
100
AcDbEntity
  8
0
  6
Continuous
 62
     7
370
    25
100
AcDbPolyline
 90
       41
 70
   128
 43
0.0
 10
-5.6564602035
 20
8.1652564884
 10
-5.8972551252
 20
7.909821709
 10
-6.1663205003
 20
7.5560375216
 10
-6.4024858874
 20
7.1619386047
 10
-6.6044912422
 20
6.7296276466
 10
-6.7712587786
 20
6.2614112132
 10
-6.9018987197
 20
5.7597874419
 10
-6.9957140449
 20
5.2274327125
 10
-7.0522042087
 20
4.6671873678
 10
-7.0710678119
 20
4.0820405591
 10
-7.0522042087
 20
3.4751142979
 10
-6.9957140449
 20
2.8496467982
 10
-6.9018987197
 20
2.2089752
 10
-6.7712587786
 20
1.5565177633
 10
-6.6044912422
 20
0.8957556308
 10
-6.4024858874
 20
0.2302142545
 10
-6.1663205003
 20
-0.4365554144
 10
-5.8972551252
 20
-1.1009958714
 10
-5.5967253425
 20
-1.759562039
 10
-5.2663346086
 20
-2.4087401818
 10
-4.9078457009
 20
-3.0450666535
 10
-4.5231713129
 20
-3.6651463771
 10
-4.1143638488
 20
-4.265670959
 10
-3.6836044735
 20
-4.8434363407
 10
-3.2331914745
 20
-5.3953598939
 10
-2.7655280001
 20
-5.9184968676
 10
-2.2831092373
 20
-6.4100560997
 10
-1.7885090988
 20
-6.8674149091
 10
-1.2843664904
 20
-7.2881330887
 10
-0.7733712311
 20
-7.6699659248
 10
-0.2582497017
 20
-8.0108761741
 10
0.2582497017
 20
-8.3090449329
 10
0.7733712311
 20
-8.562881342
 10
1.2843664904
 20
-8.7710310741
 10
1.7885090988
 20
-8.9323835605
 10
2.2831092373
 20
-9.0460779158
 10
2.7655280001
 20
-9.1115075314
 10
3.2331914745
 20
-9.128323312
 10
3.6836044735
 20
-9.0964355382
 10
4.1143638488
 20
-9.016014345
 10
4.2422466411
 20
-8.9816646002
  0
LINE
  5
C2
330
B7
100
AcDbEntity
  8
0
  6
Continuous
 62
     7
370
    25
100
AcDbLine
 10
-13.4989028906
 20
23.3833192843
 30
0.0
 11
-14.913116453
 21
22.5669111725
 31
0.0
  0
LINE
  5
C3
330
B7
100
AcDbEntity
  8
0
  6
Continuous
 62
     7
370
    25
100
AcDbLine
 10
12.0846893282
 20
-24.1997273961
 30
0.0
 11
13.4989028906
 21
-23.3833192843
 31
0.0
  0
VIEWPORT
  5
F0
330
B7
100
AcDbEntity
  8
0
100
AcDbViewport
 10
0.0
 20
0.0
 30
0.0
 40
205.6
 41
156.0
 68
     1
 69
     1
 12
0.0
 22
0.0
 13
0.0
 23
0.0
 14
10.0
 24
10.0
 15
10.0
 25
10.0
 16
0.0
 26
0.0
 36
1.0
 17
0.0
 27
0.0
 37
0.0
 42
50.0
 43
0.0
 44
0.0
 45
55.08
 50
0.0
 51
0.0
 72
   100
 90
   557152
  1

281
     0
 71
     1
 74
     0
110
0.0
120
0.0
130
0.0
111
1.0
121
0.0
131
0.0
112
0.0
122
1.0
132
0.0
 79
     0
146
0.0
  0
ENDBLK
  5
BA
330
B7
100
AcDbEntity
  8
0
100
AcDbBlockEnd
  0
BLOCK
  5
C6
330
C4
100
AcDbEntity
  8
0
100
AcDbBlockBegin
  2
*Paper_Space8
 70
     0
 10
0.0
 20
0.0
 30
0.0
  3
*Paper_Space8
  1

  0
LWPOLYLINE
  5
CA
330
C4
100
AcDbEntity
  8
0
  6
Continuous
 62
     7
370
    25
100
AcDbPolyline
 90
       87
 70
   128
 43
0.0
 10
7.9107904389
 20
-3.3146769604
 10
7.8871966722
 20
-2.6825727119
 10
7.816541255
 20
-2.0410164525
 10
7.6992011646
 20
-1.3934311625
 10
7.535802461
 20
-0.7432719897
 10
7.3272169472
 20
-0.0940078145
 10
7.0745575169
 20
0.5508972578
 10
6.7791722177
 20
1.1880023797
 10
6.442637058
 20
1.8139083195
 10
6.0667475982
 20
2.4252755983
 10
5.6535093715
 20
3.0188423072
 10
5.2051271826
 20
3.591441511
 10
4.7239933443
 20
4.140018145
 10
4.2126749139
 20
4.6616453158
 10
3.6738999965
 20
5.1535399165
 10
3.1105431894
 20
5.6130774767
 10
2.5256102449
 20
6.0378061646
 10
1.9222220333
 20
6.425459869
 10
1.3035978918
 20
6.7739702897
 10
0.6730384478
 20
7.0814779726
 10
0.0339080089
 20
7.3463422313
 10
-0.6103833875
 20
7.5671499003
 10
-1.2563981682
 20
7.7427228753
 10
-1.9006895647
 20
7.8721243984
 10
-2.5398200036
 20
7.9546640564
 10
-3.1703794475
 20
7.9899014647
 10
-3.789003589
 20
7.9776486164
 10
-4.3923918006
 20
7.9179708858
 10
-4.9773247451
 20
7.8111866793
 10
-5.5406815523
 20
7.6578657369
 10
-6.0794564697
 20
7.4588260921
 10
-6.5907749
 20
7.2151297077
 10
-7.0719087383
 20
6.9280768092
 10
-7.5202909273
 20
6.599198948
 10
-7.933529154
 20
6.2302508299
 10
-8.3094186137
 20
5.8232009527
 10
-8.6459537735
 20
5.3802211036
 10
-8.9413390727
 20
4.9036747717
 10
-9.1939985029
 20
4.396104538
 10
-9.4025840167
 20
3.8602185092
 10
-9.5659827203
 20
3.2988758692
 10
-9.6833228107
 20
2.7150716238
 10
-9.7539782279
 20
2.1119206213
 10
-9.7775719946
 20
1.4926409332
 10
-9.7539782279
 20
0.8605366847
 10
-9.6833228107
 20
0.2189804253
 10
-9.5659827203
 20
-0.4286048647
 10
-9.4025840167
 20
-1.0787640375
 10
-9.1939985029
 20
-1.7280282127
 10
-8.9413390727
 20
-2.3729332851
 10
-8.6459537735
 20
-3.0100384069
 10
-8.3094186137
 20
-3.6359443467
 10
-7.933529154
 20
-4.2473116255
 10
-7.5202909273
 20
-4.8408783344
 10
-7.0719087383
 20
-5.4134775382
 10
-6.5907749
 20
-5.9620541723
 10
-6.0794564697
 20
-6.483681343
 10
-5.5406815523
 20
-6.9755759437
 10
-4.9773247451
 20
-7.4351135039
 10
-4.3923918006
 20
-7.8598421919
 10
-3.789003589
 20
-8.2474958963
 10
-3.1703794475
 20
-8.5960063169
 10
-2.5398200036
 20
-8.9035139998
 10
-1.9006895647
 20
-9.1683782585
 10
-1.2563981682
 20
-9.3891859275
 10
-0.6103833875
 20
-9.5647589025
 10
0.0339080089
 20
-9.6941604256
 10
0.6730384478
 20
-9.7767000837
 10
1.3035978918
 20
-9.8119374919
 10
1.9222220333
 20
-9.7996846436
 10
2.5256102449
 20
-9.740006913
 10
3.1105431894
 20
-9.6332227065
 10
3.6738999965
 20
-9.4799017641
 10
4.2126749139
 20
-9.2808621193
 10
4.7239933443
 20
-9.0371657349
 10
5.2051271826
 20
-8.7501128364
 10
5.6535093715
 20
-8.4212349752
 10
6.0667475982
 20
-8.0522868571
 10
6.442637058
 20
-7.6452369799
 10
6.7791722177
 20
-7.2022571308
 10
7.0745575169
 20
-6.725710799
 10
7.3272169472
 20
-6.2181405652
 10
7.535802461
 20
-5.6822545365
 10
7.6992011646
 20
-5.1209118964
 10
7.816541255
 20
-4.537107651
 10
7.8871966722
 20
-3.9339566485
 10
7.9107904389
 20
-3.3146769604
  0
LWPOLYLINE
  5
CB
330
C4
100
AcDbEntity
  8
0
  6
Continuous
 62
     7
370
    25
100
AcDbPolyline
 90
      143
 70
   128
 43
0.0
 10
22.9458985074
 20
-7.4008971701
 10
22.9225260924
 20
-6.3708298313
 10
22.8524545997
 20
-5.3300746545
 10
22.7358211978
 20
-4.2806689668
 10
22.5728542019
 20
-3.2246670291
 10
22.3638726276
 20
-2.1641360149
 10
22.1092855662
 20
-1.1011519633
 10
21.8095913837
 20
-0.0377957155
 10
21.4653767456
 20
1.0238511586
 10
21.0773154683
 20
2.0817104354
 10
20.6461671999
 20
3.1337113057
 10
20.1727759333
 20
4.1777944285
 10
19.6580683543
 20
5.2119159619
 10
19.103052027
 20
6.2340515646
 10
18.508813422
 20
7.242200358
 10
17.8765157893
 20
8.2343888435
 10
17.2073968812
 20
9.2086747657
 10
16.5027665293
 20
10.1631509141
 10
15.7640040808
 20
11.0959488567
 10
14.9925556976
 20
12.0052425978
 10
14.1899315264
 20
12.8892521522
 10
13.3577027415
 20
13.7462470298
 10
12.49749847
 20
14.5745496227
 10
11.6110026021
 20
15.3725384897
 10
10.699950495
 20
16.1386515302
 10
9.7661255761
 20
16.8713890419
 10
8.8113558515
 20
17.5693166568
 10
7.8375103277
 20
18.2310681487
 10
6.8464953532
 20
18.855348108
 10
5.8402508862
 20
19.4409344774
 10
4.8207466975
 20
19.9866809441
 10
3.7899785145
 20
20.4915191837
 10
2.7499641144
 20
20.9544609517
 10
1.702739374
 20
21.3746000178
 10
0.6503542851
 20
21.7511139401
 10
-0.4051310591
 20
22.0832656748
 10
-1.4616504966
 20
22.3704050194
 10
-2.5171358408
 20
22.6119698852
 10
-3.5695209297
 20
22.8074873975
 10
-4.6167456701
 20
22.9565748216
 10
-5.6567600703
 20
23.0589403119
 10
-6.6875282532
 20
23.1143834832
 10
-7.7070324419
 20
23.1227958028
 10
-8.7132769089
 20
23.0841608032
 10
-9.7042918834
 20
22.9985541143
 10
-10.6781374072
 20
22.8661433152
 10
-11.6329071318
 20
22.6871876061
 10
-12.5667320507
 20
22.4620373014
 10
-13.4777841578
 20
22.1911331434
 10
-14.3642800257
 20
21.8750054395
 10
-15.2244842973
 20
21.5142730247
 10
-16.0567130821
 20
21.1096420496
 10
-16.8593372533
 20
20.6619045984
 10
-17.6307856365
 20
20.171937138
 10
-18.3695480851
 20
19.6406988029
 10
-19.0741784369
 20
19.0692295171
 10
-19.743297345
 20
18.4586479584
 10
-20.3755949777
 20
17.8101493689
 10
-20.9698335827
 20
17.1250032152
 10
-21.52484991
 20
16.404550703
 10
-22.039557489
 20
15.6502021518
 10
-22.5129487556
 20
14.8634342344
 10
-22.944097024
 20
14.045787086
 10
-23.3321583014
 20
13.1988612893
 10
-23.6763729394
 20
12.3243147412
 10
-23.9760671219
 20
11.4238594077
 10
-24.2306541833
 20
10.4992579724
 10
-24.4396357576
 20
9.5523203861
 10
-24.6026027535
 20
8.5849003234
 10
-24.7192361555
 20
7.5988915547
 10
-24.7893076481
 20
6.5962242384
 10
-24.8126800632
 20
5.5788611429
 10
-24.7893076481
 20
4.5487938041
 10
-24.7192361555
 20
3.5080386273
 10
-24.6026027535
 20
2.4586329396
 10
-24.4396357576
 20
1.4026310019
 10
-24.2306541833
 20
0.3420999876
 10
-23.9760671219
 20
-0.720884064
 10
-23.6763729394
 20
-1.7842403117
 10
-23.3321583014
 20
-2.8458871858
 10
-22.944097024
 20
-3.9037464626
 10
-22.5129487556
 20
-4.9557473329
 10
-22.039557489
 20
-5.9998304557
 10
-21.52484991
 20
-7.0339519891
 10
-20.9698335827
 20
-8.0560875918
 10
-20.3755949777
 20
-9.0642363852
 10
-19.743297345
 20
-10.0564248708
 10
-19.0741784369
 20
-11.0307107929
 10
-18.3695480851
 20
-11.9851869413
 10
-17.6307856365
 20
-12.9179848839
 10
-16.8593372533
 20
-13.827278625
 10
-16.0567130821
 20
-14.7112881795
 10
-15.2244842973
 20
-15.568283057
 10
-14.3642800257
 20
-16.3965856499
 10
-13.4777841578
 20
-17.1945745169
 10
-12.5667320507
 20
-17.9606875574
 10
-11.6329071318
 20
-18.6934250692
 10
-10.6781374072
 20
-19.391352684
 10
-9.7042918834
 20
-20.0531041759
 10
-8.7132769089
 20
-20.6773841352
 10
-7.7070324419
 20
-21.2629705046
 10
-6.6875282532
 20
-21.8087169713
 10
-5.6567600703
 20
-22.3135552109
 10
-4.6167456701
 20
-22.7764969789
 10
-3.5695209297
 20
-23.196636045
 10
-2.5171358408
 20
-23.5731499673
 10
-1.4616504966
 20
-23.905301702
 10
-0.4051310591
 20
-24.1924410467
 10
0.6503542851
 20
-24.4340059124
 10
1.702739374
 20
-24.6295234247
 10
2.7499641144
 20
-24.7786108488
 10
3.7899785145
 20
-24.8809763391
 10
4.8207466975
 20
-24.9364195104
 10
5.8402508862
 20
-24.94483183
 10
6.8464953532
 20
-24.9061968305
 10
7.8375103277
 20
-24.8205901415
 10
8.8113558515
 20
-24.6881793424
 10
9.7661255761
 20
-24.5092236334
 10
10.699950495
 20
-24.2840733287
 10
11.6110026021
 20
-24.0131691706
 10
12.49749847
 20
-23.6970414667
 10
13.3577027415
 20
-23.3363090519
 10
14.1899315264
 20
-22.9316780769
 10
14.9925556976
 20
-22.4839406256
 10
15.7640040808
 20
-21.9939731653
 10
16.5027665293
 20
-21.4627348302
 10
17.2073968812
 20
-20.8912655443
 10
17.8765157893
 20
-20.2806839856
 10
18.508813422
 20
-19.6321853962
 10
19.103052027
 20
-18.9470392424
 10
19.6580683543
 20
-18.2265867302
 10
20.1727759333
 20
-17.472238179
 10
20.6461671999
 20
-16.6854702617
 10
21.0773154683
 20
-15.8678231133
 10
21.4653767456
 20
-15.0208973165
 10
21.8095913837
 20
-14.1463507684
 10
22.1092855662
 20
-13.2458954349
 10
22.3638726276
 20
-12.3212939996
 10
22.5728542019
 20
-11.3743564133
 10
22.7358211978
 20
-10.4069363507
 10
22.8524545997
 20
-9.4209275819
 10
22.9225260924
 20
-8.4182602656
 10
22.9458985074
 20
-7.4008971701
  0
LWPOLYLINE
  5
CC
330
C4
100
AcDbEntity
  8
0
  6
Continuous
 62
     7
370
    25
100
AcDbPolyline
 90
       58
 70
   128
 43
0.0
 10
23.8792892853
 20
-6.4898791565
 10
23.8559168702
 20
-5.4598118177
 10
23.7858453776
 20
-4.4190566409
 10
23.6692119757
 20
-3.3696509532
 10
23.5062449798
 20
-2.3136490155
 10
23.2972634055
 20
-1.2531180013
 10
23.042676344
 20
-0.1901339496
 10
22.7429821616
 20
0.8732222981
 10
22.3987675235
 20
1.9348691722
 10
22.0107062462
 20
2.992728449
 10
21.5795579777
 20
4.0447293193
 10
21.1061667112
 20
5.0888124421
 10
20.5914591321
 20
6.1229339755
 10
20.0364428049
 20
7.1450695782
 10
19.4422041999
 20
8.1532183716
 10
18.8099065672
 20
9.1454068572
 10
18.1407876591
 20
10.1196927793
 10
17.4361573072
 20
11.0741689277
 10
16.6973948586
 20
12.0069668703
 10
15.9259464755
 20
12.9162606114
 10
15.1233223042
 20
13.8002701659
 10
14.2910935194
 20
14.6572650434
 10
13.4308892479
 20
15.4855676363
 10
12.5443933799
 20
16.2835565033
 10
11.6333412729
 20
17.0496695438
 10
10.699516354
 20
17.7824070555
 10
9.7447466293
 20
18.4803346704
 10
8.7709011056
 20
19.1420861623
 10
7.779886131
 20
19.7663661216
 10
6.773641664
 20
20.351952491
 10
5.7541374754
 20
20.8976989577
 10
4.7233692924
 20
21.4025371973
 10
3.6833548922
 20
21.8654789653
 10
2.6361301519
 20
22.2856180314
 10
1.583745063
 20
22.6621319537
 10
0.5282597187
 20
22.9942836884
 10
-0.5282597187
 20
23.281423033
 10
-1.583745063
 20
23.5229878988
 10
-2.6361301519
 20
23.7185054111
 10
-3.6833548922
 20
23.8675928352
 10
-4.7233692924
 20
23.9699583255
 10
-5.7541374754
 20
24.0254014968
 10
-6.773641664
 20
24.0338138164
 10
-7.779886131
 20
23.9951788168
 10
-8.7709011056
 20
23.9095721279
 10
-9.7447466293
 20
23.7771613288
 10
-10.699516354
 20
23.5982056198
 10
-11.6333412729
 20
23.3730553151
 10
-12.5443933799
 20
23.102151157
 10
-13.4308892479
 20
22.7860234531
 10
-14.2910935194
 20
22.4252910383
 10
-15.1233223042
 20
22.0206600632
 10
-15.9259464755
 20
21.572922612
 10
-16.6973948586
 20
21.0829551517
 10
-17.4361573072
 20
20.5517168166
 10
-18.1407876591
 20
19.9802475307
 10
-18.8099065672
 20
19.369665972
 10
-18.8589102836
 20
19.3220470685
  0
LWPOLYLINE
  5
CE
330
C4
100
AcDbEntity
  8
0
  6
Continuous
 62
     7
370
    25
100
AcDbPolyline
 90
       42
 70
   128
 43
0.0
 10
-7.4255846917
 20
6.6742765762
 10
-7.7125629956
 20
6.2912391172
 10
-8.0079482948
 20
5.8146927854
 10
-8.260607725
 20
5.3071225516
 10
-8.4691932389
 20
4.7712365228
 10
-8.6325919424
 20
4.2098938828
 10
-8.7499320329
 20
3.6260896374
 10
-8.8205874501
 20
3.0229386349
 10
-8.8441812168
 20
2.4036589468
 10
-8.8205874501
 20
1.7715546983
 10
-8.7499320329
 20
1.1299984389
 10
-8.6325919424
 20
0.4824131489
 10
-8.4691932389
 20
-0.1677460239
 10
-8.260607725
 20
-0.8170101991
 10
-8.0079482948
 20
-1.4619152715
 10
-7.7125629956
 20
-2.0990203933
 10
-7.3760278358
 20
-2.7249263331
 10
-7.0001383761
 20
-3.3362936119
 10
-6.5869001494
 20
-3.9298603208
 10
-6.1385179604
 20
-4.5024595246
 10
-5.6573841221
 20
-5.0510361586
 10
-5.1460656918
 20
-5.5726633294
 10
-4.6072907744
 20
-6.0645579301
 10
-4.0439339673
 20
-6.5240954903
 10
-3.4590010228
 20
-6.9488241783
 10
-2.8556128111
 20
-7.3364778827
 10
-2.2369886696
 20
-7.6849883033
 10
-1.6064292257
 20
-7.9924959862
 10
-0.9672987868
 20
-8.2573602449
 10
-0.3230073903
 20
-8.4781679139
 10
0.3230073903
 20
-8.6537408889
 10
0.9672987868
 20
-8.783142412
 10
1.6064292257
 20
-8.86568207
 10
2.2369886696
 20
-8.9009194783
 10
2.8556128111
 20
-8.88866663
 10
3.4590010228
 20
-8.8289888994
 10
4.0439339673
 20
-8.7222046929
 10
4.6072907744
 20
-8.5688837505
 10
5.1460656918
 20
-8.3698441057
 10
5.6573841221
 20
-8.1261477213
 10
6.1385179604
 20
-7.8390948228
 10
6.4921939138
 20
-7.5852945898
  0
LINE
  5
CF
330
C4
100
AcDbEntity
  8
0
  6
Continuous
 62
     7
370
    25
100
AcDbLine
 10
-18.8589102836
 20
19.3220470685
 30
0.0
 11
-19.7923010614
 21
18.4110290549
 31
0.0
  0
LINE
  5
D0
330
C4
100
AcDbEntity
  8
0
  6
Continuous
 62
     7
370
    25
100
AcDbLine
 10
17.9255195057
 20
-20.2330650821
 30
0.0
 11
18.8589102836
 21
-19.3220470685
 31
0.0
  0
ARC
  5
D1
330
C4
100
AcDbEntity
  8
0
  6
Continuous
 62
     7
370
    25
100
AcDbCircle
 10
6.1947947192
 20
-6.9692606755
 30
0.0
 40
17.6909907777758
100
AcDbArc
 50
315.7129950309
 51
1.5527621149
  0
VIEWPORT
  5
F2
330
C4
100
AcDbEntity
  8
0
100
AcDbViewport
 10
0.0
 20
0.0
 30
0.0
 40
205.6
 41
156.0
 68
     1
 69
     1
 12
0.0
 22
0.0
 13
0.0
 23
0.0
 14
10.0
 24
10.0
 15
10.0
 25
10.0
 16
0.0
 26
0.0
 36
1.0
 17
0.0
 27
0.0
 37
0.0
 42
50.0
 43
0.0
 44
0.0
 45
55.08
 50
0.0
 51
0.0
 72
   100
 90
   557152
  1

281
     0
 71
     1
 74
     0
110
0.0
120
0.0
130
0.0
111
1.0
121
0.0
131
0.0
112
0.0
122
1.0
132
0.0
 79
     0
146
0.0
  0
ENDBLK
  5
C7
330
C4
100
AcDbEntity
  8
0
100
AcDbBlockEnd
  0
BLOCK
  5
D4
330
D2
100
AcDbEntity
  8
0
100
AcDbBlockBegin
  2
*Paper_Space9
 70
     0
 10
0.0
 20
0.0
 30
0.0
  3
*Paper_Space9
  1

  0
LWPOLYLINE
  5
D8
330
D2
100
AcDbEntity
  8
0
  6
Continuous
 62
     7
370
    25
100
AcDbPolyline
 90
       87
 70
   128
 43
0.0
 10
8.6470366862
 20
-1.8021208658
 10
8.6220824849
 20
-1.1107705053
 10
8.5473530223
 20
-0.4168209305
 10
8.4232470125
 20
0.2760253375
 10
8.2504266148
 20
0.964071664
 10
8.0298139008
 20
1.6436470243
 10
7.7625859346
 20
2.3111255896
 10
7.4501684933
 20
2.9629460732
 10
7.0942284589
 20
3.5956307306
 10
6.6966649256
 20
4.2058039155
 10
6.2595990668
 20
4.7902100899
 10
5.785362818
 20
5.345731194
 10
5.2764864348
 20
5.8694032825
 10
4.7356849928
 20
6.358432338
 10
4.1658439018
 20
6.810209179
 10
3.5700035105
 20
7.2223233807
 10
2.9513428852
 20
7.5925761353
 10
2.313162848
 20
7.9189919844
 10
1.6588683655
 20
8.199829358
 10
0.991950382
 20
8.4335898673
 10
0.3159671933
 20
8.6190262988
 10
-0.3654745376
 20
8.755149269
 10
-1.0487390244
 20
8.8412325028
 10
-1.7301807554
 20
8.876816709
 10
-2.406163944
 20
8.8617120305
 10
-3.0730819276
 20
8.7959990573
 10
-3.72737641
 20
8.6800283964
 10
-4.3655564472
 20
8.5144188016
 10
-4.9842170725
 20
8.3000538717
 10
-5.5800574638
 20
8.0380773363
 10
-6.1498985548
 20
7.7298869536
 10
-6.6906999968
 20
7.3771270527
 10
-7.19957638
 20
6.9816797602
 10
-7.6738126288
 20
6.5456549586
 10
-8.1108784876
 20
6.0713790288
 10
-8.5084420209
 20
5.5613824381
 10
-8.8643820553
 20
5.018386239
 10
-9.1767994967
 20
4.4452875511
 10
-9.4440274628
 20
3.845144104
 10
-9.6646401769
 20
3.2211579225
 10
-9.8374605746
 20
2.576658243
 10
-9.9615665844
 20
1.91508375
 10
-10.0362960469
 20
1.2399642298
 10
-10.0612502483
 20
0.5549017371
 10
-10.0362960469
 20
-0.1364486233
 10
-9.9615665844
 20
-0.8303981982
 10
-9.8374605746
 20
-1.5232444662
 10
-9.6646401769
 20
-2.2112907927
 10
-9.4440274628
 20
-2.8908661529
 10
-9.1767994967
 20
-3.5583447183
 10
-8.8643820553
 20
-4.2101652019
 10
-8.5084420209
 20
-4.8428498593
 10
-8.1108784876
 20
-5.4530230441
 10
-7.6738126288
 20
-6.0374292186
 10
-7.19957638
 20
-6.5929503227
 10
-6.6906999968
 20
-7.1166224111
 10
-6.1498985548
 20
-7.6056514667
 10
-5.5800574638
 20
-8.0574283077
 10
-4.9842170725
 20
-8.4695425093
 10
-4.3655564472
 20
-8.839795264
 10
-3.72737641
 20
-9.166211113
 10
-3.0730819276
 20
-9.4470484866
 10
-2.406163944
 20
-9.6808089959
 10
-1.7301807554
 20
-9.8662454275
 10
-1.0487390244
 20
-10.0023683976
 10
-0.3654745376
 20
-10.0884516315
 10
0.3159671933
 20
-10.1240358377
 10
0.991950382
 20
-10.1089311592
 10
1.6588683655
 20
-10.043218186
 10
2.313162848
 20
-9.9272475251
 10
2.9513428852
 20
-9.7616379303
 10
3.5700035105
 20
-9.5472730004
 10
4.1658439018
 20
-9.285296465
 10
4.7356849928
 20
-8.9771060823
 10
5.2764864348
 20
-8.6243461814
 10
5.785362818
 20
-8.2288988889
 10
6.2595990668
 20
-7.7928740873
 10
6.6966649256
 20
-7.3185981574
 10
7.0942284589
 20
-6.8086015668
 10
7.4501684933
 20
-6.2656053677
 10
7.7625859346
 20
-5.6925066798
 10
8.0298139008
 20
-5.0923632327
 10
8.2504266148
 20
-4.4683770512
 10
8.4232470125
 20
-3.8238773717
 10
8.5473530223
 20
-3.1623028787
 10
8.6220824849
 20
-2.4871833585
 10
8.6470366862
 20
-1.8021208658
  0
LWPOLYLINE
  5
D9
330
D2
100
AcDbEntity
  8
0
  6
Continuous
 62
     7
370
    25
100
AcDbPolyline
 90
      143
 70
   128
 43
0.0
 10
24.5490805805
 20
-3.8055900782
 10
24.5243604941
 20
-2.6764784607
 10
24.4502486257
 20
-1.543348256
 10
24.3268900526
 20
-0.4084176196
 10
24.1545262552
 20
0.7260917684
 10
23.9334946435
 20
1.8579590527
 10
23.6642278975
 20
2.9849685499
 10
23.3472531193
 20
4.104914086
 10
22.9831908021
 20
5.215603315
 10
22.5727536148
 20
6.3148620106
 10
22.1167450076
 20
7.4005383222
 10
21.6160576387
 20
8.4705069875
 10
21.0716716271
 20
9.5226734927
 10
20.4846526341
 20
10.5549781722
 10
19.8561497769
 20
11.5654002414
 10
19.1873933793
 20
12.5519617514
 10
18.4796925634
 20
13.5127314619
 10
17.7344326867
 20
14.4458286209
 10
16.9530726306
 20
15.3494266471
 10
16.1371419439
 20
16.2217567047
 10
15.2882378493
 20
17.0611111669
 10
14.4080221165
 20
17.8658469577
 10
13.498217809
 20
18.6343887691
 10
12.5606059116
 20
19.3652321444
 10
11.5970218435
 20
20.0569464235
 10
10.6093518659
 20
20.708177543
 10
9.599529389
 20
21.3176506874
 10
8.5695311878
 20
21.8841727846
 10
7.5213735322
 20
22.4066348409
 10
6.4571082399
 20
22.8840141123
 10
5.3788186603
 20
23.3153761064
 10
4.2886155959
 20
23.6998764118
 10
3.1886331703
 20
24.0367623512
 10
2.0810246508
 20
24.3253744546
 10
0.9679582331
 20
24.5651477501
 10
-0.1483872031
 20
24.7556128703
 10
-1.265826359
 20
24.8963969708
 10
-2.3821717951
 20
24.9872244601
 10
-3.4952382128
 20
25.0279175391
 10
-4.6028467323
 20
25.0183965492
 10
-5.7028291579
 20
24.9586801282
 10
-6.7930322224
 20
24.8488851737
 10
-7.8713218019
 20
24.6892266146
 10
-8.9355870942
 20
24.48001699
 10
-9.9837447498
 20
24.2216658376
 10
-11.013742951
 20
23.9146788918
 10
-12.0235654279
 20
23.5596570941
 10
-13.0112354056
 20
23.1572954162
 10
-13.9748194736
 20
22.7083815
 10
-14.9124313711
 20
22.2137941157
 10
-15.8222356785
 20
21.6745014413
 10
-16.7024514113
 20
21.0915591674
 10
-17.5513555059
 20
20.466108431
 10
-18.3672861926
 20
19.7993735812
 10
-19.1486462488
 20
19.0926597829
 10
-19.8939061254
 20
18.3473504614
 10
-20.6016069413
 20
17.5649045948
 10
-21.2703633389
 20
16.7468538576
 10
-21.8988661962
 20
15.8947996226
 10
-22.4858851892
 20
15.0104098258
 10
-23.0302712007
 20
14.0954157019
 10
-23.5309585696
 20
13.1516083949
 10
-23.9869671769
 20
12.1808354518
 10
-24.3974043641
 20
11.1849972063
 10
-24.7614666814
 20
10.1660430585
 10
-25.0784414595
 20
9.1259676591
 10
-25.3477082056
 20
8.0668070043
 10
-25.5687398172
 20
6.9906344511
 10
-25.7411036147
 20
5.8995566576
 10
-25.8644621877
 20
4.7957094599
 10
-25.9385740562
 20
3.6812536907
 10
-25.9632941426
 20
2.5583709495
 10
-25.9385740562
 20
1.4292593321
 10
-25.8644621877
 20
0.2961291274
 10
-25.7411036147
 20
-0.838801509
 10
-25.5687398172
 20
-1.9733108971
 10
-25.3477082056
 20
-3.1051781814
 10
-25.0784414595
 20
-4.2321876786
 10
-24.7614666814
 20
-5.3521332147
 10
-24.3974043641
 20
-6.4628224437
 10
-23.9869671769
 20
-7.5620811393
 10
-23.5309585696
 20
-8.6477574509
 10
-23.0302712007
 20
-9.7177261162
 10
-22.4858851892
 20
-10.7698926213
 10
-21.8988661962
 20
-11.8021973009
 10
-21.2703633389
 20
-12.81261937
 10
-20.6016069413
 20
-13.7991808801
 10
-19.8939061254
 20
-14.7599505905
 10
-19.1486462488
 20
-15.6930477496
 10
-18.3672861926
 20
-16.5966457757
 10
-17.5513555059
 20
-17.4689758334
 10
-16.7024514113
 20
-18.3083302955
 10
-15.8222356785
 20
-19.1130660864
 10
-14.9124313711
 20
-19.8816078978
 10
-13.9748194736
 20
-20.6124512731
 10
-13.0112354056
 20
-21.3041655521
 10
-12.0235654279
 20
-21.9553966716
 10
-11.013742951
 20
-22.5648698161
 10
-9.9837447498
 20
-23.1313919133
 10
-8.9355870942
 20
-23.6538539696
 10
-7.8713218019
 20
-24.1312332409
 10
-6.7930322224
 20
-24.562595235
 10
-5.7028291579
 20
-24.9470955405
 10
-4.6028467323
 20
-25.2839814799
 10
-3.4952382128
 20
-25.5725935833
 10
-2.3821717951
 20
-25.8123668788
 10
-1.265826359
 20
-26.002831999
 10
-0.1483872031
 20
-26.1436160995
 10
0.9679582331
 20
-26.2344435888
 10
2.0810246508
 20
-26.2751366678
 10
3.1886331703
 20
-26.2656156779
 10
4.2886155959
 20
-26.2058992568
 10
5.3788186603
 20
-26.0961043024
 10
6.4571082399
 20
-25.9364457433
 10
7.5213735322
 20
-25.7272361187
 10
8.5695311878
 20
-25.4688849663
 10
9.599529389
 20
-25.1618980205
 10
10.6093518659
 20
-24.8068762227
 10
11.5970218435
 20
-24.4045145448
 10
12.5606059116
 20
-23.9556006287
 10
13.498217809
 20
-23.4610132444
 10
14.4080221165
 20
-22.9217205699
 10
15.2882378493
 20
-22.338778296
 10
16.1371419439
 20
-21.7133275596
 10
16.9530726306
 20
-21.0465927099
 10
17.7344326867
 20
-20.3398789115
 10
18.4796925634
 20
-19.5945695901
 10
19.1873933793
 20
-18.8121237235
 10
19.8561497769
 20
-17.9940729863
 10
20.4846526341
 20
-17.1420187512
 10
21.0716716271
 20
-16.2576289545
 10
21.6160576387
 20
-15.3426348306
 10
22.1167450076
 20
-14.3988275236
 10
22.5727536148
 20
-13.4280545805
 10
22.9831908021
 20
-12.432216335
 10
23.3472531193
 20
-11.4132621872
 10
23.6642278975
 20
-10.3731867877
 10
23.9334946435
 20
-9.314026133
 10
24.1545262552
 20
-8.2378535797
 10
24.3268900526
 20
-7.1467757862
 10
24.4502486257
 20
-6.0429285885
 10
24.5243604941
 20
-4.9284728193
 10
24.5490805805
 20
-3.8055900782
  0
LWPOLYLINE
  5
DA
330
D2
100
AcDbEntity
  8
0
  6
Continuous
 62
     7
370
    25
100
AcDbPolyline
 90
       55
 70
   128
 43
0.0
 10
25.2561873616
 20
-3.1819805139
 10
25.2314672752
 20
-2.0528688964
 10
25.1573554067
 20
-0.9197386917
 10
25.0339968336
 20
0.2151919447
 10
24.8616330362
 20
1.3497013327
 10
24.6406014246
 20
2.4815686171
 10
24.3713346785
 20
3.6085781143
 10
24.0543599004
 20
4.7285236504
 10
23.6902975831
 20
5.8392128793
 10
23.2798603958
 20
6.9384715749
 10
22.8238517886
 20
8.0241478866
 10
22.3231644197
 20
9.0941165519
 10
21.7787784082
 20
10.146283057
 10
21.1917594151
 20
11.1785877366
 10
20.5632565579
 20
12.1890098057
 10
19.8945001603
 20
13.1755713157
 10
19.1867993444
 20
14.1363410262
 10
18.4415394677
 20
15.0694381852
 10
17.6601794116
 20
15.9730362114
 10
16.8442487249
 20
16.8453662691
 10
15.9953446303
 20
17.6847207312
 10
15.1151288975
 20
18.489456522
 10
14.20532459
 20
19.2579983335
 10
13.2677126926
 20
19.9888417088
 10
12.3041286245
 20
20.6805559878
 10
11.3164586469
 20
21.3317871073
 10
10.30663617
 20
21.9412602518
 10
9.2766379688
 20
22.507782349
 10
8.2284803132
 20
23.0302444053
 10
7.1642150209
 20
23.5076236766
 10
6.0859254413
 20
23.9389856707
 10
4.9957223769
 20
24.3234859761
 10
3.8957399513
 20
24.6603719156
 10
2.7881314318
 20
24.9489840189
 10
1.6750650141
 20
25.1887573145
 10
0.558719578
 20
25.3792224347
 10
-0.558719578
 20
25.5200065352
 10
-1.6750650141
 20
25.6108340244
 10
-2.7881314318
 20
25.6515271034
 10
-3.8957399513
 20
25.6420061135
 10
-4.9957223769
 20
25.5822896925
 10
-6.0859254413
 20
25.4724947381
 10
-7.1642150209
 20
25.312836179
 10
-8.2284803132
 20
25.1036265544
 10
-9.2766379688
 20
24.8452754019
 10
-10.30663617
 20
24.5382884561
 10
-11.3164586469
 20
24.1832666584
 10
-12.3041286245
 20
23.7809049805
 10
-13.2677126926
 20
23.3319910644
 10
-14.20532459
 20
22.8374036801
 10
-15.1151288975
 20
22.2981110056
 10
-15.9953446303
 20
21.7151687317
 10
-16.8442487249
 20
21.0897179953
 10
-17.6601794116
 20
20.4229831455
 10
-17.8588213499
 20
20.2499999998
  0
LWPOLYLINE
  5
DC
330
D2
100
AcDbEntity
  8
0
  6
Continuous
 62
     7
370
    25
100
AcDbPolyline
 90
       44
 70
   128
 43
0.0
 10
-6.9584757974
 20
7.177473268
 10
-6.9667058478
 20
7.1692645229
 10
-7.4037717066
 20
6.6949885931
 10
-7.8013352399
 20
6.1849920024
 10
-8.1572752743
 20
5.6419958033
 10
-8.4696927157
 20
5.0688971155
 10
-8.7369206818
 20
4.4687536683
 10
-8.9575333959
 20
3.8447674869
 10
-9.1303537936
 20
3.2002678073
 10
-9.2544598033
 20
2.5386933144
 10
-9.3291892659
 20
1.8635737942
 10
-9.3541434672
 20
1.1785113014
 10
-9.3291892659
 20
0.487160941
 10
-9.2544598033
 20
-0.2067886338
 10
-9.1303537936
 20
-0.8996349018
 10
-8.9575333959
 20
-1.5876812284
 10
-8.7369206818
 20
-2.2672565886
 10
-8.4696927157
 20
-2.934735154
 10
-8.1572752743
 20
-3.5865556375
 10
-7.8013352399
 20
-4.2192402949
 10
-7.4037717066
 20
-4.8294134798
 10
-6.9667058478
 20
-5.4138196542
 10
-6.492469599
 20
-5.9693407584
 10
-5.9835932158
 20
-6.4930128468
 10
-5.4427917738
 20
-6.9820419023
 10
-4.8729506828
 20
-7.4338187434
 10
-4.2771102915
 20
-7.845932945
 10
-3.6584496662
 20
-8.2161856997
 10
-3.020269629
 20
-8.5426015487
 10
-2.3659751465
 20
-8.8234389223
 10
-1.699057163
 20
-9.0571994316
 10
-1.0230739744
 20
-9.2426358631
 10
-0.3416322434
 20
-9.3787588333
 10
0.3416322434
 20
-9.4648420671
 10
1.0230739744
 20
-9.5004262734
 10
1.699057163
 20
-9.4853215949
 10
2.3659751465
 20
-9.4196086216
 10
3.020269629
 20
-9.3036379608
 10
3.6584496662
 20
-9.1380283659
 10
4.2771102915
 20
-8.923663436
 10
4.8729506828
 20
-8.6616869006
 10
5.4427917738
 20
-8.353496518
 10
5.9835932158
 20
-8.000736617
 10
6.2513690164
 20
-7.8010828324
  0
LINE
  5
DD
330
D2
100
AcDbEntity
  8
0
  6
Continuous
 62
     7
370
    25
100
AcDbLine
 10
-17.8588213499
 20
20.2499999998
 30
0.0
 11
-18.565928131
 21
19.6263904355
 31
0.0
  0
LINE
  5
DE
330
D2
100
AcDbEntity
  8
0
  6
Continuous
 62
     7
370
    25
100
AcDbLine
 10
17.1517145689
 20
-20.8736095641
 30
0.0
 11
17.8588213499
 21
-20.2499999998
 31
0.0
  0
ARC
  5
DF
330
D2
100
AcDbEntity
  8
0
  6
Continuous
 62
     7
370
    25
100
AcDbCircle
 10
2.7568900706
 20
-3.567708892
 30
0.0
 40
22.50260351537332
100
AcDbArc
 50
312.1535109707
 51
0.982183708
  0
VIEWPORT
  5
F4
330
D2
100
AcDbEntity
  8
0
100
AcDbViewport
 10
0.0
 20
0.0
 30
0.0
 40
205.6
 41
156.0
 68
     1
 69
     1
 12
0.0
 22
0.0
 13
0.0
 23
0.0
 14
10.0
 24
10.0
 15
10.0
 25
10.0
 16
0.0
 26
0.0
 36
1.0
 17
0.0
 27
0.0
 37
0.0
 42
50.0
 43
0.0
 44
0.0
 45
55.08
 50
0.0
 51
0.0
 72
   100
 90
   557152
  1

281
     0
 71
     1
 74
     0
110
0.0
120
0.0
130
0.0
111
1.0
121
0.0
131
0.0
112
0.0
122
1.0
132
0.0
 79
     0
146
0.0
  0
ENDBLK
  5
D5
330
D2
100
AcDbEntity
  8
0
100
AcDbBlockEnd
  0
ENDSEC
  0
SECTION
  2
ENTITIES
  0
CIRCLE
  5
73
330
1F
100
AcDbEntity
  8
0
  6
Continuous
 62
     7
370
    25
100
AcDbCircle
 10
0.0
 20
0.0
 30
0.0
 40
10.00000000000001
  0
CIRCLE
  5
74
330
1F
100
AcDbEntity
  8
0
  6
Continuous
 62
     7
370
    25
100
AcDbCircle
 10
0.0
 20
0.0
 30
0.0
 40
27.0
  0
CIRCLE
  5
75
330
1B
100
AcDbEntity
 67
     1
  8
0
  6
Continuous
 62
     7
370
    25
100
AcDbCircle
 10
0.0
 20
0.0
 30
0.0
 40
10.00000000000001
  0
CIRCLE
  5
76
330
1B
100
AcDbEntity
 67
     1
  8
0
  6
Continuous
 62
     7
370
    25
100
AcDbCircle
 10
0.0
 20
0.0
 30
0.0
 40
27.0
  0
VIEWPORT
  5
E0
330
1B
100
AcDbEntity
 67
     1
  8
0
100
AcDbViewport
 10
0.0
 20
0.0
 30
0.0
 40
205.6
 41
156.0
 68
     1
 69
     1
 12
0.0
 22
0.0
 13
0.0
 23
0.0
 14
10.0
 24
10.0
 15
10.0
 25
10.0
 16
0.0
 26
0.0
 36
1.0
 17
0.0
 27
0.0
 37
0.0
 42
50.0
 43
0.0
 44
0.0
 45
55.08
 50
0.0
 51
0.0
 72
   100
 90
   557152
  1

281
     0
 71
     1
 74
     0
110
0.0
120
0.0
130
0.0
111
1.0
121
0.0
131
0.0
112
0.0
122
1.0
132
0.0
 79
     0
146
0.0
  0
ENDSEC
  0
SECTION
  2
OBJECTS
  0
DICTIONARY
  5
C
330
0
100
AcDbDictionary
281
     1
  3
ACAD_GROUP
350
D
  3
ACAD_LAYOUT
350
1A
  3
ACAD_MLINESTYLE
350
17
  3
ACAD_PLOTSETTINGS
350
19
  3
ACAD_PLOTSTYLENAME
350
E
  3
ACAD_SCALELIST
350
47
  3
DWGPROPS
350
F6
  0
DICTIONARY
  5
D
102
{ACAD_REACTORS
330
C
102
}
330
C
100
AcDbDictionary
281
     1
  0
DICTIONARY
  5
1A
102
{ACAD_REACTORS
330
C
102
}
330
C
100
AcDbDictionary
281
     1
  3
_Front
350
1E
  3
_
350
B8
  3
_
350
8C
  3
_
350
86
  3
_
350
26
  3
_
350
C5
  3
_
350
AC
  3
_
350
9E
  3
_
350
80
  3
_
350
92
  3
_
350
D3
  3
Model
350
22
  0
DICTIONARY
  5
17
102
{ACAD_REACTORS
330
C
102
}
330
C
100
AcDbDictionary
281
     1
  3
Standard
350
18
  0
DICTIONARY
  5
19
102
{ACAD_REACTORS
330
C
102
}
330
C
100
AcDbDictionary
281
     1
  0
ACDBDICTIONARYWDFLT
  5
E
102
{ACAD_REACTORS
330
C
102
}
330
C
100
AcDbDictionary
281
     1
  3
Normal
350
F
100
AcDbDictionaryWithDefault
340
F
  0
DICTIONARY
  5
47
102
{ACAD_REACTORS
330
C
102
}
330
C
100
AcDbDictionary
281
     1
  3
A0
350
48
  3
A1
350
49
  3
A2
350
4A
  3
A3
350
4B
  3
A4
350
4C
  3
A5
350
4D
  3
A6
350
4E
  3
A7
350
4F
  3
A8
350
50
  3
A9
350
51
  3
B0
350
52
  3
B1
350
53
  3
B2
350
54
  3
B3
350
55
  3
B4
350
56
  3
B5
350
57
  3
B6
350
58
  3
B7
350
59
  3
B8
350
5A
  3
B9
350
5B
  3
C0
350
5C
  3
C1
350
5D
  3
C2
350
5E
  3
C3
350
5F
  3
C4
350
60
  3
C5
350
61
  3
C6
350
62
  3
C7
350
63
  3
C8
350
64
  3
C9
350
65
  3
D0
350
66
  3
D1
350
67
  3
D2
350
68
  0
XRECORD
  5
F6
102
{ACAD_REACTORS
330
C
102
}
330
C
100
AcDbXrecord
280
     1
  1
DWGPROPS COOKIE
  2

  3

  4

  6

  7

  8
23712
  9

300
=
301
=
302
=
303
=
304
=
305
=
306
=
307
=
308
=
309
=
 40
0.0
 41
2460412.651719109
 42
2460412.651760857
  1

 90
        0
  0
LAYOUT
  5
1E
102
{ACAD_REACTORS
330
1A
102
}
330
1A
100
AcDbPlotSettings
  1

  2
none_device
  4
ISO_A4_(210.00_x_297.00_MM)
  6

 40
7.5
 41
20.0
 42
7.5
 43
20.0
 44
210.0
 45
297.0
 46
0.0
 47
0.0
 48
0.0
 49
0.0
140
0.0
141
0.0
142
1.0
143
0.2769230769
 70
   688
 72
     1
 73
     1
 74
     1
  7

 75
     0
147
3.6111111111
148
27.0
149
27.0
100
AcDbLayout
  1
_Front
 70
     1
 71
     1
 10
-32.5384615385
 20
-29.0769230769
 11
49.7076923077
 21
29.0769230769
 12
0.0
 22
0.0
 32
0.0
 14
-27.0
 24
-27.0
 34
0.0
 15
27.0
 25
27.0
 35
0.0
146
0.0
 13
0.0
 23
0.0
 33
0.0
 16
1.0
 26
0.0
 36
0.0
 17
0.0
 27
1.0
 37
0.0
 76
     0
330
1B
331
E0
  0
LAYOUT
  5
B8
102
{ACAD_REACTORS
330
1A
102
}
330
1A
100
AcDbPlotSettings
  1

  2
none_device
  4
ISO_A4_(210.00_x_297.00_MM)
  6

 40
7.5
 41
20.0
 42
7.5
 43
20.0
 44
210.0
 45
297.0
 46
0.0
 47
0.0
 48
0.0
 49
0.0
140
0.0
141
0.0
142
1.0
143
0.2769230769
 70
   688
 72
     1
 73
     1
 74
     1
  7

 75
     0
147
3.6111111111
148
27.0
149
27.0
100
AcDbLayout
  1
_
 70
     1
 71
     9
 10
0.0
 20
0.0
 11
0.0
 21
0.0
 12
0.0
 22
0.0
 32
0.0
 14
0.0
 24
0.0
 34
0.0
 15
0.0
 25
0.0
 35
0.0
146
0.0
 13
0.0
 23
0.0
 33
0.0
 16
1.0
 26
0.0
 36
0.0
 17
0.0
 27
1.0
 37
0.0
 76
     0
330
B7
331
F0
  0
LAYOUT
  5
8C
102
{ACAD_REACTORS
330
1A
102
}
330
1A
100
AcDbPlotSettings
  1

  2
none_device
  4
ISO_A4_(210.00_x_297.00_MM)
  6

 40
7.5
 41
20.0
 42
7.5
 43
20.0
 44
210.0
 45
297.0
 46
0.0
 47
0.0
 48
0.0
 49
0.0
140
0.0
141
0.0
142
1.0
143
0.2769230769
 70
   688
 72
     1
 73
     1
 74
     1
  7

 75
     0
147
3.6111111111
148
27.0
149
27.0
100
AcDbLayout
  1
_
 70
     1
 71
     5
 10
0.0
 20
0.0
 11
0.0
 21
0.0
 12
0.0
 22
0.0
 32
0.0
 14
0.0
 24
0.0
 34
0.0
 15
0.0
 25
0.0
 35
0.0
146
0.0
 13
0.0
 23
0.0
 33
0.0
 16
1.0
 26
0.0
 36
0.0
 17
0.0
 27
1.0
 37
0.0
 76
     0
330
8B
331
E8
  0
LAYOUT
  5
86
102
{ACAD_REACTORS
330
1A
102
}
330
1A
100
AcDbPlotSettings
  1

  2
none_device
  4
ISO_A4_(210.00_x_297.00_MM)
  6

 40
7.5
 41
20.0
 42
7.5
 43
20.0
 44
210.0
 45
297.0
 46
0.0
 47
0.0
 48
0.0
 49
0.0
140
0.0
141
0.0
142
1.0
143
0.2769230769
 70
   688
 72
     1
 73
     1
 74
     1
  7

 75
     0
147
3.6111111111
148
27.0
149
27.0
100
AcDbLayout
  1
_
 70
     1
 71
     4
 10
0.0
 20
0.0
 11
0.0
 21
0.0
 12
0.0
 22
0.0
 32
0.0
 14
0.0
 24
0.0
 34
0.0
 15
0.0
 25
0.0
 35
0.0
146
0.0
 13
0.0
 23
0.0
 33
0.0
 16
1.0
 26
0.0
 36
0.0
 17
0.0
 27
1.0
 37
0.0
 76
     0
330
85
331
E6
  0
LAYOUT
  5
26
102
{ACAD_REACTORS
330
1A
102
}
330
1A
100
AcDbPlotSettings
  1

  2
none_device
  4
ISO_A4_(210.00_x_297.00_MM)
  6

 40
7.5
 41
20.0
 42
7.5
 43
20.0
 44
210.0
 45
297.0
 46
0.0
 47
0.0
 48
0.0
 49
0.0
140
0.0
141
0.0
142
1.0
143
0.2769230769
 70
   688
 72
     1
 73
     1
 74
     1
  7

 75
     0
147
3.6111111111
148
27.0
149
27.0
100
AcDbLayout
  1
_
 70
     1
 71
     2
 10
0.0
 20
0.0
 11
0.0
 21
0.0
 12
0.0
 22
0.0
 32
0.0
 14
0.0
 24
0.0
 34
0.0
 15
0.0
 25
0.0
 35
0.0
146
0.0
 13
0.0
 23
0.0
 33
0.0
 16
1.0
 26
0.0
 36
0.0
 17
0.0
 27
1.0
 37
0.0
 76
     0
330
23
331
E2
  0
LAYOUT
  5
C5
102
{ACAD_REACTORS
330
1A
102
}
330
1A
100
AcDbPlotSettings
  1

  2
none_device
  4
ISO_A4_(210.00_x_297.00_MM)
  6

 40
7.5
 41
20.0
 42
7.5
 43
20.0
 44
210.0
 45
297.0
 46
0.0
 47
0.0
 48
0.0
 49
0.0
140
0.0
141
0.0
142
1.0
143
0.2769230769
 70
   688
 72
     1
 73
     1
 74
     1
  7

 75
     0
147
3.6111111111
148
27.0
149
27.0
100
AcDbLayout
  1
_
 70
     1
 71
    10
 10
0.0
 20
0.0
 11
0.0
 21
0.0
 12
0.0
 22
0.0
 32
0.0
 14
0.0
 24
0.0
 34
0.0
 15
0.0
 25
0.0
 35
0.0
146
0.0
 13
0.0
 23
0.0
 33
0.0
 16
1.0
 26
0.0
 36
0.0
 17
0.0
 27
1.0
 37
0.0
 76
     0
330
C4
331
F2
  0
LAYOUT
  5
AC
102
{ACAD_REACTORS
330
1A
102
}
330
1A
100
AcDbPlotSettings
  1

  2
none_device
  4
ISO_A4_(210.00_x_297.00_MM)
  6

 40
7.5
 41
20.0
 42
7.5
 43
20.0
 44
210.0
 45
297.0
 46
0.0
 47
0.0
 48
0.0
 49
0.0
140
0.0
141
0.0
142
1.0
143
0.2769230769
 70
   688
 72
     1
 73
     1
 74
     1
  7

 75
     0
147
3.6111111111
148
27.0
149
27.0
100
AcDbLayout
  1
_
 70
     1
 71
     8
 10
0.0
 20
0.0
 11
0.0
 21
0.0
 12
0.0
 22
0.0
 32
0.0
 14
0.0
 24
0.0
 34
0.0
 15
0.0
 25
0.0
 35
0.0
146
0.0
 13
0.0
 23
0.0
 33
0.0
 16
1.0
 26
0.0
 36
0.0
 17
0.0
 27
1.0
 37
0.0
 76
     0
330
AB
331
EE
  0
LAYOUT
  5
9E
102
{ACAD_REACTORS
330
1A
102
}
330
1A
100
AcDbPlotSettings
  1

  2
none_device
  4
ISO_A4_(210.00_x_297.00_MM)
  6

 40
7.5
 41
20.0
 42
7.5
 43
20.0
 44
210.0
 45
297.0
 46
0.0
 47
0.0
 48
0.0
 49
0.0
140
0.0
141
0.0
142
1.0
143
0.2769230769
 70
   688
 72
     1
 73
     1
 74
     1
  7

 75
     0
147
3.6111111111
148
27.0
149
27.0
100
AcDbLayout
  1
_
 70
     1
 71
     7
 10
0.0
 20
0.0
 11
0.0
 21
0.0
 12
0.0
 22
0.0
 32
0.0
 14
0.0
 24
0.0
 34
0.0
 15
0.0
 25
0.0
 35
0.0
146
0.0
 13
0.0
 23
0.0
 33
0.0
 16
1.0
 26
0.0
 36
0.0
 17
0.0
 27
1.0
 37
0.0
 76
     0
330
9D
331
EC
  0
LAYOUT
  5
80
102
{ACAD_REACTORS
330
1A
102
}
330
1A
100
AcDbPlotSettings
  1

  2
none_device
  4
ISO_A4_(210.00_x_297.00_MM)
  6

 40
7.5
 41
20.0
 42
7.5
 43
20.0
 44
210.0
 45
297.0
 46
0.0
 47
0.0
 48
0.0
 49
0.0
140
0.0
141
0.0
142
1.0
143
0.2769230769
 70
   688
 72
     1
 73
     1
 74
     1
  7

 75
     0
147
3.6111111111
148
27.0
149
27.0
100
AcDbLayout
  1
_
 70
     1
 71
     3
 10
0.0
 20
0.0
 11
0.0
 21
0.0
 12
0.0
 22
0.0
 32
0.0
 14
0.0
 24
0.0
 34
0.0
 15
0.0
 25
0.0
 35
0.0
146
0.0
 13
0.0
 23
0.0
 33
0.0
 16
1.0
 26
0.0
 36
0.0
 17
0.0
 27
1.0
 37
0.0
 76
     0
330
7F
331
E4
  0
LAYOUT
  5
92
102
{ACAD_REACTORS
330
1A
102
}
330
1A
100
AcDbPlotSettings
  1

  2
none_device
  4
ISO_A4_(210.00_x_297.00_MM)
  6

 40
7.5
 41
20.0
 42
7.5
 43
20.0
 44
210.0
 45
297.0
 46
0.0
 47
0.0
 48
0.0
 49
0.0
140
0.0
141
0.0
142
1.0
143
0.2769230769
 70
   688
 72
     1
 73
     1
 74
     1
  7

 75
     0
147
3.6111111111
148
27.0
149
27.0
100
AcDbLayout
  1
_
 70
     1
 71
     6
 10
0.0
 20
0.0
 11
0.0
 21
0.0
 12
0.0
 22
0.0
 32
0.0
 14
0.0
 24
0.0
 34
0.0
 15
0.0
 25
0.0
 35
0.0
146
0.0
 13
0.0
 23
0.0
 33
0.0
 16
1.0
 26
0.0
 36
0.0
 17
0.0
 27
1.0
 37
0.0
 76
     0
330
91
331
EA
  0
LAYOUT
  5
D3
102
{ACAD_REACTORS
330
1A
102
}
330
1A
100
AcDbPlotSettings
  1

  2
none_device
  4
ISO_A4_(210.00_x_297.00_MM)
  6

 40
7.5
 41
20.0
 42
7.5
 43
20.0
 44
210.0
 45
297.0
 46
0.0
 47
0.0
 48
0.0
 49
0.0
140
0.0
141
0.0
142
1.0
143
0.2769230769
 70
   688
 72
     1
 73
     1
 74
     1
  7

 75
     0
147
3.6111111111
148
27.0
149
27.0
100
AcDbLayout
  1
_
 70
     1
 71
    11
 10
0.0
 20
0.0
 11
0.0
 21
0.0
 12
0.0
 22
0.0
 32
0.0
 14
0.0
 24
0.0
 34
0.0
 15
0.0
 25
0.0
 35
0.0
146
0.0
 13
0.0
 23
0.0
 33
0.0
 16
1.0
 26
0.0
 36
0.0
 17
0.0
 27
1.0
 37
0.0
 76
     0
330
D2
331
F4
  0
LAYOUT
  5
22
102
{ACAD_REACTORS
330
1A
102
}
330
1A
100
AcDbPlotSettings
  1

  2
none_device
  4
ANSI_A_(11.00_x_8.50_Inches)
  6

 40
6.35
 41
19.05
 42
6.35000508
 43
19.05000254
 44
279.4
 45
215.9
 46
133.34999746
 47
88.89999873
 48
0.0
 49
0.0
140
0.0
141
0.0
142
0.1558333333
143
1.0
 70
  1696
 72
     0
 73
     0
 74
     0
  7

 75
     0
147
0.0179189148
148
-1300.4909072572
149
0.0
100
AcDbLayout
  1
Model
 70
     1
 71
     0
 10
0.0
 20
0.0
 11
420.0
 21
297.0
 12
0.0
 22
0.0
 32
0.0
 14
-27.0
 24
-27.0
 34
0.0
 15
27.0
 25
27.0
 35
0.0
146
0.0
 13
0.0
 23
0.0
 33
0.0
 16
1.0
 26
0.0
 36
0.0
 17
0.0
 27
1.0
 37
0.0
 76
     0
330
1F
331
29
  0
MLINESTYLE
  5
18
102
{ACAD_REACTORS
330
17
102
}
330
17
100
AcDbMlineStyle
  2
Standard
 70
     0
  3

 62
   256
 51
90.0
 52
90.0
 71
     2
 49
0.5
 62
   256
  6
BYLAYER
 49
-0.5
 62
   256
  6
BYLAYER
  0
ACDBPLACEHOLDER
  5
F
102
{ACAD_REACTORS
330
E
102
}
330
E
  0
SCALE
  5
48
102
{ACAD_REACTORS
330
47
102
}
330
47
100
AcDbScale
 70
     0
300
1:1
140
1.0
141
1.0
290
     1
  0
SCALE
  5
49
102
{ACAD_REACTORS
330
47
102
}
330
47
100
AcDbScale
 70
     0
300
1:2
140
1.0
141
2.0
290
     0
  0
SCALE
  5
4A
102
{ACAD_REACTORS
330
47
102
}
330
47
100
AcDbScale
 70
     0
300
1:4
140
1.0
141
4.0
290
     0
  0
SCALE
  5
4B
102
{ACAD_REACTORS
330
47
102
}
330
47
100
AcDbScale
 70
     0
300
1:5
140
1.0
141
5.0
290
     0
  0
SCALE
  5
4C
102
{ACAD_REACTORS
330
47
102
}
330
47
100
AcDbScale
 70
     0
300
1:8
140
1.0
141
8.0
290
     0
  0
SCALE
  5
4D
102
{ACAD_REACTORS
330
47
102
}
330
47
100
AcDbScale
 70
     0
300
1:10
140
1.0
141
10.0
290
     0
  0
SCALE
  5
4E
102
{ACAD_REACTORS
330
47
102
}
330
47
100
AcDbScale
 70
     0
300
1:16
140
1.0
141
16.0
290
     0
  0
SCALE
  5
4F
102
{ACAD_REACTORS
330
47
102
}
330
47
100
AcDbScale
 70
     0
300
1:20
140
1.0
141
20.0
290
     0
  0
SCALE
  5
50
102
{ACAD_REACTORS
330
47
102
}
330
47
100
AcDbScale
 70
     0
300
1:30
140
1.0
141
30.0
290
     0
  0
SCALE
  5
51
102
{ACAD_REACTORS
330
47
102
}
330
47
100
AcDbScale
 70
     0
300
1:40
140
1.0
141
40.0
290
     0
  0
SCALE
  5
52
102
{ACAD_REACTORS
330
47
102
}
330
47
100
AcDbScale
 70
     0
300
1:50
140
1.0
141
50.0
290
     0
  0
SCALE
  5
53
102
{ACAD_REACTORS
330
47
102
}
330
47
100
AcDbScale
 70
     0
300
1:100
140
1.0
141
100.0
290
     0
  0
SCALE
  5
54
102
{ACAD_REACTORS
330
47
102
}
330
47
100
AcDbScale
 70
     0
300
2:1
140
2.0
141
1.0
290
     0
  0
SCALE
  5
55
102
{ACAD_REACTORS
330
47
102
}
330
47
100
AcDbScale
 70
     0
300
4:1
140
4.0
141
1.0
290
     0
  0
SCALE
  5
56
102
{ACAD_REACTORS
330
47
102
}
330
47
100
AcDbScale
 70
     0
300
8:1
140
8.0
141
1.0
290
     0
  0
SCALE
  5
57
102
{ACAD_REACTORS
330
47
102
}
330
47
100
AcDbScale
 70
     0
300
10:1
140
10.0
141
1.0
290
     0
  0
SCALE
  5
58
102
{ACAD_REACTORS
330
47
102
}
330
47
100
AcDbScale
 70
     0
300
100:1
140
100.0
141
1.0
290
     0
  0
SCALE
  5
59
102
{ACAD_REACTORS
330
47
102
}
330
47
100
AcDbScale
 70
     0
300
1/128" = 1'-0"
140
0.0078125
141
12.0
290
     0
  0
SCALE
  5
5A
102
{ACAD_REACTORS
330
47
102
}
330
47
100
AcDbScale
 70
     0
300
1/64" = 1'-0"
140
0.015625
141
12.0
290
     0
  0
SCALE
  5
5B
102
{ACAD_REACTORS
330
47
102
}
330
47
100
AcDbScale
 70
     0
300
1/32" = 1'-0"
140
0.03125
141
12.0
290
     0
  0
SCALE
  5
5C
102
{ACAD_REACTORS
330
47
102
}
330
47
100
AcDbScale
 70
     0
300
1/16" = 1'-0"
140
0.0625
141
12.0
290
     0
  0
SCALE
  5
5D
102
{ACAD_REACTORS
330
47
102
}
330
47
100
AcDbScale
 70
     0
300
3/32" = 1'-0"
140
0.09375
141
12.0
290
     0
  0
SCALE
  5
5E
102
{ACAD_REACTORS
330
47
102
}
330
47
100
AcDbScale
 70
     0
300
1/8" = 1'-0"
140
0.125
141
12.0
290
     0
  0
SCALE
  5
5F
102
{ACAD_REACTORS
330
47
102
}
330
47
100
AcDbScale
 70
     0
300
3/16" = 1'-0"
140
0.1875
141
12.0
290
     0
  0
SCALE
  5
60
102
{ACAD_REACTORS
330
47
102
}
330
47
100
AcDbScale
 70
     0
300
1/4" = 1'-0"
140
0.25
141
12.0
290
     0
  0
SCALE
  5
61
102
{ACAD_REACTORS
330
47
102
}
330
47
100
AcDbScale
 70
     0
300
3/8" = 1'-0"
140
0.375
141
12.0
290
     0
  0
SCALE
  5
62
102
{ACAD_REACTORS
330
47
102
}
330
47
100
AcDbScale
 70
     0
300
1/2" = 1'-0"
140
0.5
141
12.0
290
     0
  0
SCALE
  5
63
102
{ACAD_REACTORS
330
47
102
}
330
47
100
AcDbScale
 70
     0
300
3/4" = 1'-0"
140
0.75
141
12.0
290
     0
  0
SCALE
  5
64
102
{ACAD_REACTORS
330
47
102
}
330
47
100
AcDbScale
 70
     0
300
1" = 1'-0"
140
1.0
141
12.0
290
     0
  0
SCALE
  5
65
102
{ACAD_REACTORS
330
47
102
}
330
47
100
AcDbScale
 70
     0
300
1-1/2" = 1'-0"
140
1.5
141
12.0
290
     0
  0
SCALE
  5
66
102
{ACAD_REACTORS
330
47
102
}
330
47
100
AcDbScale
 70
     0
300
3" = 1'-0"
140
3.0
141
12.0
290
     0
  0
SCALE
  5
67
102
{ACAD_REACTORS
330
47
102
}
330
47
100
AcDbScale
 70
     0
300
6" = 1'-0"
140
6.0
141
12.0
290
     0
  0
SCALE
  5
68
102
{ACAD_REACTORS
330
47
102
}
330
47
100
AcDbScale
 70
     0
300
1'-0" = 1'-0"
140
12.0
141
12.0
290
     0
  0
ENDSEC
  0
EOF
